<svg width="75" height="75" viewBox="0 0 75 75" fill="none" xmlns="http://www.w3.org/2000/svg">
<g filter="url(#filter0_dd_327:2824)">
<rect x="7" y="4" width="61" height="61" rx="16" fill="#FBFBFB"/>
</g>
<path d="M16.5088 31.548C16.7168 31.548 16.8648 31.504 16.9528 31.416C17.0488 31.32 17.0968 31.152 17.0968 30.912V28.068C17.0968 27.988 17.1368 27.948 17.2168 27.948H18.6808C18.7608 27.948 18.8008 27.988 18.8008 28.068V31.488C18.8008 32.008 18.6928 32.392 18.4768 32.64C18.2608 32.88 17.8928 33 17.3728 33H11.1448C10.6408 33 10.2808 32.88 10.0648 32.64C9.84883 32.392 9.74083 32.008 9.74083 31.488V28.836C9.74083 28.756 9.78083 28.716 9.86083 28.716H11.3248C11.4048 28.716 11.4448 28.756 11.4448 28.836V30.912C11.4448 31.152 11.4888 31.32 11.5768 31.416C11.6728 31.504 11.8208 31.548 12.0208 31.548H16.5088ZM12.7288 27.444C12.6488 27.444 12.6088 27.404 12.6088 27.324V26.148C12.6088 26.068 12.6488 26.028 12.7288 26.028H13.9288C14.0088 26.028 14.0488 26.068 14.0488 26.148V27.324C14.0488 27.404 14.0088 27.444 13.9288 27.444H12.7288ZM14.5768 27.444C14.4968 27.444 14.4568 27.404 14.4568 27.324V26.148C14.4568 26.068 14.4968 26.028 14.5768 26.028H15.7888C15.8688 26.028 15.9088 26.068 15.9088 26.148V27.324C15.9088 27.404 15.8688 27.444 15.7888 27.444H14.5768ZM22.2982 32.88C22.2982 32.96 22.2582 33 22.1782 33H20.7262C20.6462 33 20.6062 32.96 20.6062 32.88V24.96C20.6062 24.88 20.6462 24.84 20.7262 24.84H22.1782C22.2582 24.84 22.2982 24.88 22.2982 24.96V32.88ZM28.8471 30.948C28.8471 31.34 28.8071 31.668 28.7271 31.932C28.6551 32.196 28.5431 32.408 28.3911 32.568C28.2471 32.72 28.0591 32.832 27.8271 32.904C27.6031 32.968 27.3391 33 27.0351 33H24.1311C24.0511 33 24.0111 32.96 24.0111 32.88V31.668C24.0111 31.588 24.0511 31.548 24.1311 31.548H26.1951C26.3951 31.548 26.5551 31.536 26.6751 31.512C26.7951 31.48 26.8831 31.432 26.9391 31.368C27.0031 31.304 27.0431 31.22 27.0591 31.116C27.0831 31.012 27.0951 30.884 27.0951 30.732V30.084C27.0951 29.772 27.0031 29.548 26.8191 29.412C26.6431 29.268 26.3751 29.196 26.0151 29.196H24.6351C24.5551 29.196 24.5151 29.156 24.5151 29.076V27.864C24.5151 27.784 24.5551 27.744 24.6351 27.744H26.7231C27.4031 27.744 27.9271 27.92 28.2951 28.272C28.6631 28.616 28.8471 29.16 28.8471 29.904V30.948ZM30.6482 24.96C30.6482 24.88 30.6882 24.84 30.7682 24.84H32.2202C32.3002 24.84 32.3402 24.88 32.3402 24.96V30.912C32.3402 31.152 32.3842 31.32 32.4722 31.416C32.5682 31.504 32.7162 31.548 32.9162 31.548H33.2402C33.4002 31.548 33.5202 31.608 33.6002 31.728C33.6802 31.84 33.7202 32.032 33.7202 32.304C33.7202 32.592 33.6802 32.78 33.6002 32.868C33.5282 32.956 33.4082 33 33.2402 33H32.0522C31.5482 33 31.1882 32.88 30.9722 32.64C30.7562 32.392 30.6482 32.008 30.6482 31.488V24.96ZM37.4566 33.084C37.0326 33.084 36.6406 33.032 36.2806 32.928C35.9286 32.816 35.6326 32.624 35.3926 32.352C35.3046 32.496 35.1886 32.612 35.0446 32.7C34.9006 32.788 34.7486 32.856 34.5886 32.904C34.4366 32.944 34.2846 32.972 34.1326 32.988C33.9806 32.996 33.8446 33 33.7246 33C33.5646 33 33.4446 32.948 33.3646 32.844C33.2846 32.74 33.2446 32.556 33.2446 32.292C33.2446 32.02 33.2806 31.828 33.3526 31.716C33.4246 31.604 33.5486 31.548 33.7246 31.548H34.0726C34.2566 31.548 34.4206 31.472 34.5646 31.32C34.7166 31.168 34.8006 30.884 34.8166 30.468V30.228C34.8166 29.428 35.0446 28.816 35.5006 28.392C35.9566 27.96 36.6086 27.744 37.4566 27.744C38.2646 27.744 38.9086 27.972 39.3886 28.428C39.8686 28.876 40.1086 29.556 40.1086 30.468C40.1086 30.524 40.1046 30.58 40.0966 30.636C40.0966 30.684 40.0966 30.732 40.0966 30.78C40.1126 31.044 40.1886 31.24 40.3246 31.368C40.4606 31.488 40.6326 31.548 40.8406 31.548H41.1886C41.3486 31.548 41.4686 31.604 41.5486 31.716C41.6286 31.828 41.6686 32.012 41.6686 32.268C41.6686 32.756 41.5086 33 41.1886 33C41.0446 33 40.8966 32.996 40.7446 32.988C40.5926 32.972 40.4446 32.94 40.3006 32.892C40.1566 32.844 40.0206 32.776 39.8926 32.688C39.7646 32.592 39.6526 32.464 39.5566 32.304C39.3166 32.592 39.0126 32.796 38.6446 32.916C38.2846 33.028 37.8886 33.084 37.4566 33.084ZM37.4566 29.196C36.8006 29.196 36.4726 29.6 36.4726 30.408C36.4726 30.864 36.5526 31.184 36.7126 31.368C36.8806 31.544 37.1286 31.632 37.4566 31.632C37.7926 31.632 38.0406 31.544 38.2006 31.368C38.3606 31.184 38.4406 30.864 38.4406 30.408C38.4406 29.6 38.1126 29.196 37.4566 29.196ZM42.3177 26.736C42.2377 26.736 42.1977 26.696 42.1977 26.616V25.44C42.1977 25.36 42.2377 25.32 42.3177 25.32H43.5177C43.5977 25.32 43.6377 25.36 43.6377 25.44V26.616C43.6377 26.696 43.5977 26.736 43.5177 26.736H42.3177ZM44.1657 26.736C44.0857 26.736 44.0457 26.696 44.0457 26.616V25.44C44.0457 25.36 44.0857 25.32 44.1657 25.32H45.3777C45.4577 25.32 45.4977 25.36 45.4977 25.44V26.616C45.4977 26.696 45.4577 26.736 45.3777 26.736H44.1657ZM43.0137 28.068C43.0137 27.988 43.0537 27.948 43.1337 27.948H44.5857C44.6657 27.948 44.7057 27.988 44.7057 28.068V30.9C44.7217 31.1 44.8057 31.26 44.9577 31.38C45.1177 31.492 45.3377 31.548 45.6177 31.548H45.8937C46.0537 31.548 46.1737 31.604 46.2537 31.716C46.3337 31.828 46.3737 32.012 46.3737 32.268C46.3737 32.756 46.2137 33 45.8937 33C45.5897 33 45.3257 32.964 45.1017 32.892C44.8777 32.82 44.6897 32.656 44.5377 32.4C44.4097 32.656 44.2177 32.82 43.9617 32.892C43.7137 32.964 43.3697 33 42.9297 33H41.6937C41.5337 33 41.4137 32.952 41.3337 32.856C41.2537 32.752 41.2137 32.564 41.2137 32.292C41.2137 32.02 41.2537 31.828 41.3337 31.716C41.4057 31.604 41.5257 31.548 41.6937 31.548H42.4377C42.6937 31.548 42.8537 31.476 42.9177 31.332C42.9817 31.18 43.0137 30.924 43.0137 30.564V28.068ZM47.3282 31.548C47.2002 31.388 47.0922 31.196 47.0042 30.972C46.9242 30.74 46.8842 30.476 46.8842 30.18C46.8842 29.86 46.9362 29.556 47.0402 29.268C47.1442 28.972 47.3042 28.712 47.5202 28.488C47.7362 28.264 48.0122 28.084 48.3482 27.948C48.6842 27.812 49.0802 27.744 49.5362 27.744C50.1122 27.744 50.5962 27.836 50.9882 28.02C51.3802 28.204 51.6762 28.416 51.8762 28.656C51.9242 28.712 51.9162 28.772 51.8522 28.836L51.0962 29.736C51.0322 29.792 50.9722 29.792 50.9162 29.736C50.5642 29.376 50.1682 29.196 49.7282 29.196C49.4082 29.196 49.1482 29.292 48.9482 29.484C48.7482 29.676 48.6482 29.956 48.6482 30.324C48.6482 30.508 48.6762 30.672 48.7322 30.816C48.7882 30.952 48.8562 31.072 48.9362 31.176C49.0162 31.272 49.0962 31.352 49.1762 31.416C49.2642 31.472 49.3362 31.516 49.3922 31.548H52.0082C52.0882 31.548 52.1282 31.588 52.1282 31.668V32.88C52.1282 32.96 52.0882 33 52.0082 33H46.3682C46.2082 33 46.0882 32.948 46.0082 32.844C45.9282 32.732 45.8882 32.548 45.8882 32.292C45.8882 32.02 45.9282 31.828 46.0082 31.716C46.0802 31.604 46.2002 31.548 46.3682 31.548H47.3282ZM57.1746 31.548H58.2666C58.4666 31.548 58.6106 31.504 58.6986 31.416C58.7946 31.32 58.8426 31.152 58.8426 30.912V24.96C58.8426 24.88 58.8826 24.84 58.9626 24.84H60.4266C60.5066 24.84 60.5466 24.88 60.5466 24.96V31.488C60.5466 32.008 60.4386 32.392 60.2226 32.64C60.0066 32.88 59.6466 33 59.1426 33H53.5626C53.4826 33 53.4426 32.96 53.4426 32.88V31.668C53.4426 31.588 53.4826 31.548 53.5626 31.548H55.4706V26.652C55.4706 26.572 55.5106 26.532 55.5906 26.532H57.0546C57.1346 26.532 57.1746 26.572 57.1746 26.652V31.548ZM64.1543 32.88C64.1543 32.96 64.1143 33 64.0343 33H62.5823C62.5023 33 62.4623 32.96 62.4623 32.88V24.96C62.4623 24.88 62.5023 24.84 62.5823 24.84H64.0343C64.1143 24.84 64.1543 24.88 64.1543 24.96V32.88ZM20.9791 42.256C20.8991 42.256 20.8591 42.216 20.8591 42.136V40.96C20.8591 40.88 20.8991 40.84 20.9791 40.84H22.1791C22.2591 40.84 22.2991 40.88 22.2991 40.96V42.136C22.2991 42.216 22.2591 42.256 22.1791 42.256H20.9791ZM22.8271 42.256C22.7471 42.256 22.7071 42.216 22.7071 42.136V40.96C22.7071 40.88 22.7471 40.84 22.8271 40.84H24.0391C24.1191 40.84 24.1591 40.88 24.1591 40.96V42.136C24.1591 42.216 24.1191 42.256 24.0391 42.256H22.8271ZM23.4151 43.744V43.228C23.4151 43.148 23.4551 43.108 23.5351 43.108H24.9991C25.0791 43.108 25.1191 43.148 25.1191 43.228V46.912C25.1191 47.152 25.1631 47.32 25.2511 47.416C25.3471 47.504 25.4951 47.548 25.6951 47.548H26.0671C26.3871 47.548 26.5471 47.792 26.5471 48.28C26.5471 48.56 26.5071 48.752 26.4271 48.856C26.3551 48.952 26.2351 49 26.0671 49H24.8191C24.4271 49 24.1191 48.94 23.8951 48.82C23.6791 48.692 23.5351 48.456 23.4631 48.112C23.2871 48.256 23.0831 48.364 22.8511 48.436C22.6191 48.508 22.3751 48.544 22.1191 48.544C21.8071 48.544 21.5071 48.5 21.2191 48.412C20.9391 48.324 20.6911 48.188 20.4751 48.004C20.2591 47.82 20.0871 47.58 19.9591 47.284C19.8391 46.988 19.7791 46.628 19.7791 46.204C19.7791 45.724 19.8471 45.328 19.9831 45.016C20.1271 44.696 20.3111 44.444 20.5351 44.26C20.7671 44.068 21.0271 43.936 21.3151 43.864C21.6111 43.784 21.9111 43.744 22.2151 43.744H23.4151ZM22.4191 47.092C22.7231 47.092 22.9631 47.008 23.1391 46.84C23.3231 46.664 23.4151 46.392 23.4151 46.024V45.196H22.4551C22.1511 45.196 21.9071 45.268 21.7231 45.412C21.5391 45.556 21.4471 45.82 21.4471 46.204C21.4471 46.532 21.5391 46.764 21.7231 46.9C21.9071 47.028 22.1391 47.092 22.4191 47.092ZM27.2474 51.46C27.1674 51.46 27.1274 51.42 27.1274 51.34V50.164C27.1274 50.084 27.1674 50.044 27.2474 50.044H28.4474C28.5274 50.044 28.5674 50.084 28.5674 50.164V51.34C28.5674 51.42 28.5274 51.46 28.4474 51.46H27.2474ZM29.0954 51.46C29.0154 51.46 28.9754 51.42 28.9754 51.34V50.164C28.9754 50.084 29.0154 50.044 29.0954 50.044H30.3074C30.3874 50.044 30.4274 50.084 30.4274 50.164V51.34C30.4274 51.42 30.3874 51.46 30.3074 51.46H29.0954ZM28.0034 44.068C28.0034 43.988 28.0434 43.948 28.1234 43.948H29.5754C29.6554 43.948 29.6954 43.988 29.6954 44.068V46.9C29.7114 47.1 29.7954 47.26 29.9474 47.38C30.1074 47.492 30.3274 47.548 30.6074 47.548H30.8834C31.0434 47.548 31.1634 47.604 31.2434 47.716C31.3234 47.828 31.3634 48.012 31.3634 48.268C31.3634 48.756 31.2034 49 30.8834 49C30.5794 49 30.3154 48.964 30.0914 48.892C29.8674 48.82 29.6794 48.656 29.5274 48.4C29.3994 48.656 29.2074 48.82 28.9514 48.892C28.7034 48.964 28.3594 49 27.9194 49H26.6834C26.5234 49 26.4034 48.952 26.3234 48.856C26.2434 48.752 26.2034 48.564 26.2034 48.292C26.2034 48.02 26.2434 47.828 26.3234 47.716C26.3954 47.604 26.5154 47.548 26.6834 47.548H27.4274C27.6834 47.548 27.8434 47.476 27.9074 47.332C27.9714 47.18 28.0034 46.924 28.0034 46.564V44.068ZM32.4979 42.736C32.4179 42.736 32.3779 42.696 32.3779 42.616V41.44C32.3779 41.36 32.4179 41.32 32.4979 41.32H33.9859C34.0659 41.32 34.1059 41.36 34.1059 41.44V42.616C34.1059 42.696 34.0659 42.736 33.9859 42.736H32.4979ZM33.9259 48.4C33.7899 48.648 33.6019 48.812 33.3619 48.892C33.1219 48.964 32.7859 49 32.3539 49H31.3939C31.2339 49 31.1139 48.976 31.0339 48.928C30.9539 48.872 30.9139 48.756 30.9139 48.58C30.9139 48.476 30.9219 48.364 30.9379 48.244C30.9539 48.124 30.9819 48.012 31.0219 47.908C31.0619 47.804 31.1139 47.72 31.1779 47.656C31.2419 47.584 31.3219 47.548 31.4179 47.548H31.8139C32.0619 47.548 32.2179 47.48 32.2819 47.344C32.3539 47.2 32.3899 46.948 32.3899 46.588V44.068C32.3899 44.004 32.4459 43.968 32.5579 43.96C32.6779 43.952 32.7819 43.948 32.8699 43.948H33.9739C34.0539 43.948 34.0939 43.988 34.0939 44.068V46.9C34.1099 47.1 34.1939 47.26 34.3459 47.38C34.5059 47.492 34.7259 47.548 35.0059 47.548H35.2819C35.4419 47.548 35.5619 47.604 35.6419 47.716C35.7219 47.828 35.7619 48.012 35.7619 48.268C35.7619 48.756 35.6019 49 35.2819 49C34.9779 49 34.7139 48.964 34.4899 48.892C34.2659 48.82 34.0779 48.656 33.9259 48.4ZM39.0888 43.744C39.4968 43.744 39.8648 43.792 40.1928 43.888C40.5208 43.976 40.8008 44.108 41.0328 44.284C41.2648 44.452 41.4408 44.664 41.5608 44.92C41.6888 45.176 41.7528 45.472 41.7528 45.808C41.7528 46.184 41.6648 46.524 41.4888 46.828C41.3128 47.124 41.0888 47.368 40.8168 47.56C40.8808 47.552 40.9448 47.548 41.0088 47.548C41.0808 47.548 41.1488 47.548 41.2128 47.548H42.4368C42.5968 47.548 42.7168 47.6 42.7968 47.704C42.8768 47.8 42.9168 47.988 42.9168 48.268C42.9168 48.54 42.8768 48.732 42.7968 48.844C42.7248 48.948 42.6048 49 42.4368 49H40.6488C40.3608 49 40.0888 48.988 39.8328 48.964C39.5768 48.94 39.3328 48.856 39.1008 48.712C38.8368 48.856 38.5528 48.94 38.2488 48.964C37.9528 48.988 37.6888 49 37.4568 49H35.7168C35.5488 49 35.4288 48.944 35.3568 48.832C35.2768 48.72 35.2368 48.528 35.2368 48.256C35.2368 48 35.2768 47.82 35.3568 47.716C35.4288 47.604 35.5488 47.548 35.7168 47.548H37.3488C37.0768 47.364 36.8528 47.124 36.6768 46.828C36.5088 46.524 36.4248 46.184 36.4248 45.808C36.4248 45.472 36.4848 45.176 36.6048 44.92C36.7328 44.664 36.9128 44.452 37.1448 44.284C37.3768 44.108 37.6568 43.976 37.9848 43.888C38.3128 43.792 38.6808 43.744 39.0888 43.744ZM39.0888 44.932C38.8328 44.932 38.6048 45.012 38.4048 45.172C38.2128 45.332 38.1168 45.588 38.1168 45.94C38.1168 46.308 38.2128 46.604 38.4048 46.828C38.5968 47.044 38.8248 47.216 39.0888 47.344C39.3528 47.216 39.5808 47.044 39.7728 46.828C39.9648 46.604 40.0608 46.308 40.0608 45.94C40.0608 45.588 39.9608 45.332 39.7608 45.172C39.5608 45.012 39.3368 44.932 39.0888 44.932ZM37.5888 42.736C37.5088 42.736 37.4688 42.696 37.4688 42.616V41.44C37.4688 41.36 37.5088 41.32 37.5888 41.32H38.7888C38.8688 41.32 38.9088 41.36 38.9088 41.44V42.616C38.9088 42.696 38.8688 42.736 38.7888 42.736H37.5888ZM39.4368 42.736C39.3568 42.736 39.3168 42.696 39.3168 42.616V41.44C39.3168 41.36 39.3568 41.32 39.4368 41.32H40.6488C40.7288 41.32 40.7688 41.36 40.7688 41.44V42.616C40.7688 42.696 40.7288 42.736 40.6488 42.736H39.4368ZM43.5716 42.736C43.4916 42.736 43.4516 42.696 43.4516 42.616V41.44C43.4516 41.36 43.4916 41.32 43.5716 41.32H44.7716C44.8516 41.32 44.8916 41.36 44.8916 41.44V42.616C44.8916 42.696 44.8516 42.736 44.7716 42.736H43.5716ZM45.4196 42.736C45.3396 42.736 45.2996 42.696 45.2996 42.616V41.44C45.2996 41.36 45.3396 41.32 45.4196 41.32H46.6316C46.7116 41.32 46.7516 41.36 46.7516 41.44V42.616C46.7516 42.696 46.7116 42.736 46.6316 42.736H45.4196ZM44.2676 44.068C44.2676 43.988 44.3076 43.948 44.3876 43.948H45.8396C45.9196 43.948 45.9596 43.988 45.9596 44.068V46.9C45.9756 47.1 46.0596 47.26 46.2116 47.38C46.3716 47.492 46.5916 47.548 46.8716 47.548H47.1476C47.3076 47.548 47.4276 47.604 47.5076 47.716C47.5876 47.828 47.6276 48.012 47.6276 48.268C47.6276 48.756 47.4676 49 47.1476 49C46.8436 49 46.5796 48.964 46.3556 48.892C46.1316 48.82 45.9436 48.656 45.7916 48.4C45.6636 48.656 45.4716 48.82 45.2156 48.892C44.9676 48.964 44.6236 49 44.1836 49H42.9476C42.7876 49 42.6676 48.952 42.5876 48.856C42.5076 48.752 42.4676 48.564 42.4676 48.292C42.4676 48.02 42.5076 47.828 42.5876 47.716C42.6596 47.604 42.7796 47.548 42.9476 47.548H43.6916C43.9476 47.548 44.1076 47.476 44.1716 47.332C44.2356 47.18 44.2676 46.924 44.2676 46.564V44.068ZM47.6221 49C47.4621 49 47.3421 48.972 47.2621 48.916C47.1821 48.86 47.1421 48.748 47.1421 48.58C47.1421 48.484 47.1541 48.376 47.1781 48.256C47.1941 48.136 47.2221 48.024 47.2621 47.92C47.2941 47.816 47.3421 47.728 47.4061 47.656C47.4621 47.584 47.5341 47.548 47.6221 47.548H48.0421C48.2421 47.548 48.3861 47.504 48.4741 47.416C48.5701 47.32 48.6181 47.152 48.6181 46.912V40.96C48.6181 40.88 48.6581 40.84 48.7381 40.84H50.2021C50.2821 40.84 50.3221 40.88 50.3221 40.96V47.488C50.3221 48.008 50.2141 48.392 49.9981 48.64C49.7821 48.88 49.4221 49 48.9181 49H47.6221ZM53.936 48.88C53.936 48.96 53.896 49 53.816 49H52.364C52.284 49 52.244 48.96 52.244 48.88V40.96C52.244 40.88 52.284 40.84 52.364 40.84H53.816C53.896 40.84 53.936 40.88 53.936 40.96V48.88Z" fill="black"/>
<defs>
<filter id="filter0_dd_327:2824" x="0" y="0" width="75" height="75" filterUnits="userSpaceOnUse" color-interpolation-filters="sRGB">
<feFlood flood-opacity="0" result="BackgroundImageFix"/>
<feColorMatrix in="SourceAlpha" type="matrix" values="0 0 0 0 0 0 0 0 0 0 0 0 0 0 0 0 0 0 127 0" result="hardAlpha"/>
<feMorphology radius="1" operator="erode" in="SourceAlpha" result="effect1_dropShadow_327:2824"/>
<feOffset dy="3"/>
<feGaussianBlur stdDeviation="4"/>
<feColorMatrix type="matrix" values="0 0 0 0 0.196078 0 0 0 0 0.196078 0 0 0 0 0.278431 0 0 0 0.05 0"/>
<feBlend mode="normal" in2="BackgroundImageFix" result="effect1_dropShadow_327:2824"/>
<feColorMatrix in="SourceAlpha" type="matrix" values="0 0 0 0 0 0 0 0 0 0 0 0 0 0 0 0 0 0 127 0" result="hardAlpha"/>
<feOffset/>
<feGaussianBlur stdDeviation="0.5"/>
<feColorMatrix type="matrix" values="0 0 0 0 0.0470588 0 0 0 0 0.101961 0 0 0 0 0.294118 0 0 0 0.24 0"/>
<feBlend mode="normal" in2="effect1_dropShadow_327:2824" result="effect2_dropShadow_327:2824"/>
<feBlend mode="normal" in="SourceGraphic" in2="effect2_dropShadow_327:2824" result="shape"/>
</filter>
</defs>
</svg>
