<svg version="1.2" baseProfile="tiny-ps" xmlns="http://www.w3.org/2000/svg" viewBox="0 0 251 93" width="251" height="93">
    <title>coderhub-svg</title>
    <defs>
        <clipPath clipPathUnits="userSpaceOnUse" id="cp1">
            <path d="M0 0L250.34 0L250.34 92.12L0 92.12L0 0Z" />
        </clipPath>
        <linearGradient id="grd1" gradientUnits="userSpaceOnUse"  x1="190.566" y1="-1.868" x2="239.37" y2="47.633">
            <stop offset="0" stop-color="#46f2d2"  />
            <stop offset="1" stop-color="#3a73ff"  />
        </linearGradient>
    </defs>
    <style>
        tspan { white-space:pre }
        .shp0 { fill: #3a73ff } 
        .shp1 { fill: url(#grd1) } 
        .shp2 { fill: #333333 } 
    </style>
    <g id="Clip-Path" clip-path="url(#cp1)">
        <g id="Layer">
            <path id="Layer" fill-rule="evenodd" class="shp0" d="M224.97 48.78L226.72 50.54C226.81 50.63 226.89 50.74 226.94 50.87C226.99 50.99 227.02 51.12 227.02 51.25C227.02 51.38 226.99 51.51 226.94 51.63C226.89 51.76 226.81 51.87 226.72 51.96L215.42 63.23C215.33 63.32 215.22 63.4 215.09 63.45C214.97 63.5 214.84 63.53 214.71 63.53C214.58 63.53 214.45 63.5 214.32 63.45C214.2 63.4 214.09 63.32 214 63.23L212.25 61.47C212.16 61.38 212.08 61.27 212.03 61.14C211.98 61.02 211.95 60.89 211.95 60.76C211.95 60.63 211.98 60.5 212.03 60.38C212.08 60.25 212.16 60.14 212.25 60.05L223.55 48.78C223.64 48.69 223.75 48.61 223.88 48.56C224 48.51 224.13 48.48 224.26 48.48C224.39 48.48 224.52 48.51 224.65 48.56C224.77 48.61 224.88 48.69 224.97 48.78ZM209.56 62.83C209.68 62.78 209.82 62.75 209.95 62.75C210.08 62.75 210.22 62.78 210.34 62.83C210.47 62.89 210.58 62.96 210.67 63.06L212.42 64.82C212.51 64.91 212.59 65.02 212.64 65.15C212.69 65.27 212.72 65.4 212.72 65.53C212.72 65.66 212.69 65.79 212.64 65.91C212.59 66.04 212.51 66.15 212.42 66.24L210.66 67.99C210.57 68.08 210.46 68.16 210.34 68.21C210.21 68.26 210.08 68.29 209.95 68.29C209.82 68.29 209.69 68.26 209.56 68.21C209.44 68.16 209.33 68.08 209.24 67.99L207.48 66.23C207.39 66.14 207.31 66.03 207.26 65.9C207.21 65.78 207.18 65.65 207.18 65.52C207.18 65.39 207.21 65.26 207.26 65.14C207.31 65.01 207.39 64.9 207.48 64.81L209.23 63.06C209.32 62.96 209.44 62.89 209.56 62.83ZM228.63 53.33C228.76 53.27 228.89 53.24 229.03 53.24C229.17 53.24 229.3 53.27 229.43 53.33C229.55 53.38 229.67 53.46 229.76 53.56L231.51 55.32C231.6 55.41 231.68 55.52 231.73 55.65C231.78 55.77 231.81 55.9 231.81 56.03C231.81 56.16 231.78 56.29 231.73 56.41C231.68 56.54 231.6 56.65 231.51 56.74L225.01 63.23C224.92 63.33 224.81 63.4 224.68 63.45C224.56 63.5 224.43 63.53 224.29 63.53C224.16 63.53 224.03 63.5 223.91 63.45C223.78 63.4 223.67 63.33 223.58 63.23L221.83 61.47C221.74 61.38 221.66 61.27 221.61 61.14C221.56 61.02 221.53 60.89 221.53 60.76C221.53 60.63 221.56 60.5 221.61 60.38C221.66 60.25 221.74 60.14 221.83 60.05L228.3 53.56C228.39 53.46 228.51 53.38 228.63 53.33ZM214.3 67.64C214.42 67.58 214.55 67.56 214.68 67.55C214.82 67.55 214.95 67.58 215.07 67.63C215.19 67.68 215.31 67.76 215.4 67.85L217.15 69.6C217.25 69.69 217.32 69.8 217.37 69.93C217.42 70.05 217.45 70.18 217.45 70.31C217.45 70.45 217.42 70.58 217.37 70.7C217.32 70.83 217.25 70.94 217.15 71.03L210.65 77.52C210.56 77.61 210.45 77.69 210.32 77.74C210.2 77.79 210.07 77.82 209.94 77.82C209.81 77.82 209.68 77.79 209.56 77.74C209.43 77.69 209.32 77.61 209.23 77.52L207.47 75.77C207.38 75.68 207.3 75.57 207.25 75.44C207.2 75.32 207.17 75.19 207.17 75.06C207.17 74.92 207.2 74.79 207.25 74.67C207.3 74.54 207.38 74.43 207.47 74.34L213.97 67.86C214.06 67.76 214.17 67.69 214.3 67.64ZM214.01 77.34C214.2 77.16 214.44 77.06 214.7 77.06C214.96 77.06 215.2 77.16 215.39 77.34L217.14 79.1C217.23 79.19 217.31 79.3 217.36 79.43C217.41 79.55 217.44 79.68 217.44 79.81C217.44 79.94 217.41 80.07 217.36 80.19C217.31 80.32 217.23 80.43 217.14 80.52L210.64 87.01C210.55 87.11 210.44 87.18 210.31 87.23C210.19 87.28 210.06 87.31 209.93 87.31C209.79 87.31 209.66 87.28 209.54 87.23C209.41 87.18 209.3 87.11 209.21 87.01L207.46 85.25C207.37 85.16 207.29 85.05 207.24 84.92C207.19 84.8 207.16 84.67 207.16 84.54C207.16 84.41 207.19 84.28 207.24 84.16C207.29 84.03 207.37 83.92 207.46 83.83L213.97 77.34L214.01 77.34ZM233.06 58.33C233.15 58.24 233.26 58.16 233.38 58.11C233.51 58.06 233.64 58.03 233.77 58.03C233.9 58.03 234.03 58.06 234.16 58.11C234.28 58.16 234.39 58.24 234.48 58.33L236.23 60.08C236.32 60.17 236.4 60.28 236.45 60.41C236.5 60.53 236.53 60.66 236.53 60.8C236.53 60.93 236.5 61.06 236.45 61.18C236.4 61.31 236.32 61.42 236.23 61.51L224.94 72.77C224.85 72.86 224.74 72.94 224.62 72.99C224.49 73.04 224.36 73.07 224.23 73.07C224.1 73.07 223.97 73.04 223.84 72.99C223.72 72.94 223.61 72.86 223.52 72.77L221.77 71.02C221.68 70.93 221.6 70.82 221.55 70.69C221.5 70.57 221.47 70.44 221.47 70.31C221.47 70.17 221.5 70.04 221.55 69.92C221.6 69.79 221.68 69.68 221.77 69.59L233.02 58.34L233.06 58.33ZM218.75 72.6C218.94 72.42 219.19 72.32 219.44 72.32C219.7 72.32 219.95 72.42 220.14 72.6L221.89 74.36C221.98 74.45 222.06 74.56 222.11 74.69C222.16 74.81 222.19 74.94 222.19 75.07C222.19 75.2 222.16 75.33 222.11 75.45C222.06 75.58 221.98 75.69 221.89 75.78L220.13 77.54C220.04 77.63 219.93 77.71 219.81 77.76C219.68 77.81 219.55 77.84 219.42 77.84C219.29 77.84 219.16 77.81 219.03 77.76C218.91 77.71 218.8 77.63 218.71 77.54L216.96 75.79C216.87 75.7 216.79 75.59 216.74 75.46C216.69 75.34 216.66 75.21 216.66 75.08C216.66 74.95 216.69 74.82 216.74 74.7C216.79 74.57 216.87 74.46 216.96 74.37L218.71 72.61L218.75 72.6ZM204.44 86.88C204.63 86.7 204.88 86.6 205.14 86.6C205.4 86.61 205.65 86.71 205.83 86.89L207.61 88.69C207.71 88.78 207.78 88.89 207.83 89.02C207.88 89.14 207.91 89.27 207.91 89.41C207.91 89.54 207.88 89.67 207.83 89.79C207.78 89.92 207.71 90.03 207.61 90.12L205.86 91.87C205.77 91.97 205.66 92.04 205.53 92.09C205.41 92.14 205.28 92.17 205.15 92.17C205.01 92.17 204.88 92.14 204.76 92.09C204.63 92.04 204.52 91.97 204.43 91.87L202.68 90.11C202.59 90.02 202.51 89.91 202.46 89.78C202.41 89.66 202.38 89.53 202.38 89.4C202.38 89.27 202.41 89.14 202.46 89.02C202.51 88.89 202.59 88.78 202.68 88.69L204.4 86.89L204.44 86.88ZM204.49 67.79C204.68 67.63 204.91 67.54 205.16 67.55C205.4 67.55 205.64 67.64 205.82 67.81L207.57 69.56C207.66 69.65 207.74 69.76 207.79 69.89C207.84 70.01 207.87 70.14 207.87 70.28C207.87 70.41 207.84 70.54 207.79 70.66C207.74 70.79 207.66 70.9 207.57 70.99L201.07 77.47C200.98 77.57 200.87 77.64 200.74 77.69C200.62 77.74 200.49 77.77 200.35 77.77C200.22 77.77 200.09 77.74 199.97 77.69C199.84 77.64 199.73 77.57 199.64 77.47L197.89 75.71C197.8 75.62 197.72 75.51 197.67 75.38C197.62 75.26 197.59 75.13 197.59 75C197.59 74.87 197.62 74.74 197.67 74.62C197.72 74.49 197.8 74.38 197.89 74.29L204.4 67.8L204.49 67.79ZM194.92 77.34C195.1 77.18 195.34 77.09 195.59 77.09C195.83 77.09 196.07 77.19 196.25 77.35L198 79.11C198.09 79.2 198.17 79.31 198.22 79.44C198.27 79.56 198.3 79.69 198.3 79.82C198.3 79.95 198.27 80.08 198.22 80.2C198.17 80.33 198.09 80.44 198 80.53L196.24 82.28C196.15 82.37 196.04 82.45 195.91 82.5C195.79 82.55 195.66 82.58 195.53 82.58C195.4 82.58 195.27 82.55 195.15 82.5C195.02 82.45 194.91 82.37 194.82 82.28L193.07 80.53C192.97 80.44 192.9 80.33 192.85 80.2C192.8 80.08 192.77 79.95 192.77 79.81C192.77 79.68 192.8 79.55 192.85 79.43C192.9 79.3 192.97 79.19 193.07 79.1L194.83 77.35L194.92 77.34ZM218.77 63.07C218.95 62.91 219.19 62.82 219.44 62.82C219.68 62.82 219.92 62.92 220.1 63.08L221.85 64.84C221.94 64.93 222.02 65.04 222.07 65.17C222.12 65.29 222.15 65.42 222.15 65.55C222.15 65.68 222.12 65.81 222.07 65.93C222.02 66.06 221.94 66.17 221.85 66.26L220.09 68.01C220 68.1 219.89 68.18 219.76 68.23C219.64 68.28 219.51 68.31 219.38 68.31C219.25 68.31 219.12 68.28 219 68.23C218.87 68.18 218.76 68.1 218.67 68.01L216.92 66.26C216.82 66.17 216.75 66.06 216.7 65.93C216.65 65.81 216.62 65.68 216.62 65.55C216.62 65.41 216.65 65.28 216.7 65.16C216.75 65.03 216.82 64.92 216.92 64.83L218.68 63.08L218.77 63.07ZM204.46 77.35C204.64 77.19 204.88 77.1 205.13 77.1C205.37 77.1 205.61 77.2 205.79 77.36L207.54 79.11C207.63 79.2 207.71 79.31 207.76 79.44C207.81 79.56 207.84 79.69 207.84 79.83C207.84 79.96 207.81 80.09 207.76 80.21C207.71 80.34 207.63 80.45 207.54 80.54L205.78 82.29C205.69 82.38 205.58 82.46 205.46 82.51C205.33 82.56 205.2 82.59 205.07 82.59C204.94 82.59 204.81 82.56 204.69 82.51C204.56 82.46 204.45 82.38 204.36 82.29L202.61 80.53C202.52 80.44 202.44 80.33 202.39 80.2C202.34 80.08 202.31 79.95 202.31 79.82C202.31 79.69 202.34 79.56 202.39 79.44C202.44 79.31 202.52 79.2 202.61 79.11L204.37 77.36L204.46 77.35ZM238.53 62.82C238.8 62.82 239.05 62.92 239.24 63.11L240.99 64.86C241.09 64.95 241.16 65.06 241.21 65.19C241.26 65.31 241.29 65.44 241.29 65.58C241.29 65.71 241.26 65.84 241.21 65.96C241.16 66.09 241.09 66.2 240.99 66.29L229.7 77.55C229.61 77.64 229.5 77.72 229.38 77.77C229.25 77.82 229.12 77.85 228.99 77.85C228.86 77.85 228.73 77.82 228.6 77.77C228.48 77.72 228.37 77.64 228.28 77.55L226.53 75.79C226.44 75.7 226.36 75.59 226.31 75.46C226.26 75.34 226.23 75.21 226.23 75.08C226.23 74.95 226.26 74.82 226.31 74.7C226.36 74.57 226.44 74.46 226.53 74.37L237.83 63.11C238.02 62.92 238.27 62.82 238.53 62.82ZM223.49 77.4C223.58 77.3 223.69 77.23 223.82 77.17C223.94 77.12 224.08 77.09 224.21 77.09C224.34 77.09 224.48 77.12 224.6 77.17C224.72 77.23 224.84 77.3 224.93 77.4L226.68 79.16C226.77 79.25 226.85 79.36 226.9 79.49C226.95 79.61 226.98 79.74 226.98 79.87C226.98 80 226.95 80.13 226.9 80.25C226.85 80.38 226.77 80.49 226.68 80.58L220.18 87.07C220.09 87.16 219.98 87.24 219.85 87.29C219.73 87.34 219.6 87.37 219.47 87.37C219.34 87.37 219.21 87.34 219.09 87.29C218.96 87.24 218.85 87.16 218.76 87.07L217 85.31C216.91 85.22 216.83 85.11 216.78 84.98C216.73 84.86 216.7 84.73 216.7 84.6C216.7 84.47 216.73 84.34 216.78 84.22C216.83 84.09 216.91 83.98 217 83.89L223.5 77.4L223.49 77.4ZM213.98 86.89C214.08 86.8 214.19 86.73 214.31 86.68C214.44 86.64 214.57 86.61 214.7 86.62C214.83 86.62 214.96 86.65 215.08 86.71C215.2 86.76 215.31 86.84 215.4 86.94L217.15 88.7C217.24 88.79 217.32 88.9 217.37 89.03C217.42 89.15 217.45 89.28 217.45 89.41C217.45 89.54 217.42 89.67 217.37 89.79C217.32 89.92 217.24 90.03 217.15 90.12L215.39 91.87C215.3 91.96 215.19 92.04 215.06 92.09C214.94 92.14 214.81 92.17 214.68 92.17C214.55 92.17 214.42 92.14 214.29 92.09C214.17 92.04 214.06 91.96 213.97 91.87L212.22 90.12C212.13 90.03 212.05 89.92 212 89.79C211.95 89.67 211.92 89.54 211.92 89.41C211.92 89.27 211.95 89.14 212 89.02C212.05 88.89 212.13 88.78 212.22 88.69L213.99 86.89L213.98 86.89Z" />
            <path id="Layer" class="shp1" d="M244.27 63.05L231.76 75.46C236.42 70.72 236.1 62.77 231.02 57.64L192.73 19.04C192.32 18.63 192.09 18.08 192.09 17.5C192.09 16.92 192.32 16.37 192.73 15.96L208.19 0.63C208.6 0.22 209.15 -0.01 209.73 -0.01C210.31 -0.01 210.86 0.22 211.27 0.63L244.39 34.05C246.29 35.96 247.79 38.23 248.81 40.72C249.83 43.21 250.35 45.88 250.34 48.57C250.33 51.27 249.79 53.93 248.75 56.42C247.7 58.9 246.18 61.15 244.27 63.05Z" />
            <path id="Layer" class="shp2" d="M0 27.98C0 19.54 6.35 13.84 14.58 13.84C16.91 13.77 19.22 14.36 21.24 15.54C23.25 16.72 24.89 18.45 25.97 20.52L20.97 22.98C20.36 21.8 19.44 20.81 18.32 20.1C17.19 19.4 15.9 19.01 14.57 18.98C9.57 18.98 5.97 22.79 5.97 27.98C5.97 33.17 9.58 36.98 14.57 36.98C15.9 36.95 17.19 36.56 18.32 35.86C19.45 35.15 20.36 34.16 20.97 32.98L25.97 35.4C24.89 37.47 23.25 39.2 21.24 40.39C19.22 41.58 16.92 42.18 14.58 42.12C6.35 42.11 0 36.37 0 27.98Z" />
            <path id="Layer" fill-rule="evenodd" class="shp2" d="M27.73 31.69C27.72 29.62 28.32 27.58 29.47 25.85C30.61 24.12 32.24 22.77 34.16 21.97C36.07 21.17 38.18 20.96 40.21 21.36C42.25 21.75 44.12 22.75 45.59 24.21C47.06 25.68 48.06 27.54 48.47 29.58C48.87 31.61 48.67 33.72 47.87 35.64C47.08 37.55 45.73 39.19 44.01 40.34C42.28 41.49 40.25 42.1 38.18 42.1C36.79 42.16 35.41 41.94 34.12 41.44C32.82 40.94 31.65 40.17 30.66 39.2C29.68 38.22 28.91 37.04 28.41 35.75C27.9 34.46 27.67 33.08 27.73 31.69ZM43.26 31.69C43.26 28.62 41.46 25.96 38.18 25.96C34.9 25.96 33.18 28.62 33.18 31.69C33.18 34.76 34.98 37.47 38.18 37.47C41.38 37.47 43.26 34.82 43.26 31.69Z" />
            <path id="Layer" fill-rule="evenodd" class="shp2" d="M65.83 41.62L65.83 39.08C65.11 40.02 64.19 40.77 63.13 41.29C62.07 41.82 60.91 42.08 59.73 42.08C54.73 42.08 50.96 38.31 50.96 31.67C50.96 25.24 54.69 21.31 59.73 21.31C60.91 21.29 62.08 21.56 63.14 22.08C64.2 22.6 65.12 23.36 65.83 24.31L65.83 14.29L71.07 14.29L71.07 41.62L65.83 41.62ZM65.83 35.23L65.83 28.23C65.31 27.54 64.64 26.97 63.86 26.58C63.09 26.19 62.24 25.99 61.37 25.98C58.37 25.98 56.37 28.31 56.37 31.71C56.37 35.11 58.42 37.49 61.37 37.49C62.24 37.48 63.09 37.27 63.86 36.88C64.64 36.49 65.31 35.92 65.83 35.23Z" />
            <path id="Layer" fill-rule="evenodd" class="shp2" d="M74.64 31.69C74.6 30.33 74.84 28.98 75.34 27.71C75.84 26.45 76.59 25.29 77.55 24.33C78.51 23.36 79.65 22.59 80.91 22.08C82.17 21.56 83.52 21.31 84.88 21.33C90.82 21.33 94.79 25.75 94.79 32.18L94.79 33.41L80.09 33.41C80.46 35.83 82.42 37.84 85.78 37.84C87.7 37.82 89.56 37.14 91.03 35.91L93.36 39.35C91.06 41.22 88.17 42.19 85.21 42.1C79.19 42.11 74.64 38.05 74.64 31.69ZM84.88 25.59C83.68 25.51 82.5 25.91 81.59 26.7C80.69 27.49 80.13 28.61 80.05 29.81L89.83 29.81C89.79 29.21 89.63 28.62 89.35 28.08C89.08 27.54 88.7 27.05 88.24 26.66C87.78 26.27 87.25 25.97 86.67 25.79C86.09 25.61 85.48 25.54 84.88 25.6L84.88 25.59Z" />
            <path id="Layer" class="shp2" d="M98.24 41.62L98.24 21.83L103.44 21.83L103.44 24.49C104.21 23.55 105.17 22.79 106.26 22.24C107.35 21.7 108.54 21.39 109.75 21.34L109.75 26.42C109.28 26.33 108.79 26.29 108.31 26.3C107.39 26.31 106.47 26.52 105.64 26.91C104.8 27.3 104.05 27.86 103.44 28.55L103.44 41.62L98.24 41.62Z" />
            <path id="Layer" class="shp2" d="M131.5 41.62L131.5 30.11L118.59 30.11L118.59 41.62L112.83 41.62L112.83 14.29L118.64 14.29L118.64 25.03L131.55 25.03L131.55 14.29L137.41 14.29L137.41 41.62L131.5 41.62Z" />
            <path id="Layer" class="shp2" d="M155.63 41.62L155.63 39.12C154.74 40.08 153.65 40.84 152.45 41.36C151.24 41.87 149.94 42.13 148.63 42.12C144.29 42.12 142.24 39.74 142.24 35.89L142.24 21.83L147.44 21.83L147.44 33.83C147.44 36.58 148.88 37.48 151.09 37.48C151.96 37.47 152.82 37.26 153.6 36.87C154.38 36.48 155.06 35.92 155.6 35.23L155.6 21.83L160.83 21.83L160.83 41.62L155.63 41.62Z" />
            <path id="Layer" fill-rule="evenodd" class="shp2" d="M165.66 41.62L165.66 14.29L170.83 14.29L170.83 24.37C171.54 23.42 172.46 22.66 173.53 22.14C174.59 21.62 175.76 21.35 176.94 21.37C181.94 21.37 185.71 25.3 185.71 31.73C185.71 38.37 181.94 42.14 176.94 42.14C175.76 42.14 174.59 41.87 173.54 41.35C172.48 40.83 171.55 40.07 170.83 39.14L170.83 41.68L165.66 41.62ZM175.37 37.48C178.37 37.48 180.37 35.14 180.37 31.7C180.37 28.26 178.37 25.97 175.37 25.97C174.5 25.99 173.63 26.2 172.85 26.6C172.07 27 171.39 27.56 170.86 28.26L170.86 35.26C171.4 35.94 172.09 36.49 172.87 36.88C173.65 37.26 174.5 37.47 175.37 37.48Z" />
            <path id="Layer" class="shp2" d="M37.95 54.93C38.13 54.93 38.31 54.89 38.47 54.82L49.37 50.01C49.66 49.86 49.88 49.61 49.99 49.31C50.1 49 50.09 48.67 49.97 48.37C49.84 48.07 49.6 47.83 49.31 47.7C49.01 47.57 48.68 47.55 48.37 47.66L37.46 52.47C37.19 52.59 36.96 52.79 36.82 53.06C36.68 53.32 36.64 53.62 36.7 53.91C36.76 54.21 36.93 54.47 37.16 54.65C37.39 54.84 37.68 54.94 37.98 54.93L37.95 54.93Z" />
            <path id="Layer" fill-rule="evenodd" class="shp2" d="M76.13 59.89L76.13 68.52L72.13 73.16L71.99 73.16C65.5 73.14 33.36 73.02 32.62 72.78C31.91 72.53 31.29 72.05 30.88 71.42C30.62 71.72 30.32 71.98 29.98 72.2C29.53 72.49 29.04 72.7 28.52 72.84C28 72.97 27.47 73.06 26.93 73.1C26.35 73.16 25.87 73.16 25.35 73.16L8.35 73.16C7.04 73.18 5.73 73.07 4.45 72.82C3.51 72.65 2.61 72.27 1.84 71.7C1.19 71.18 0.7 70.49 0.43 69.7C0.14 68.76 0 67.77 0.02 66.78L0.02 60.09L5.68 60.09L5.68 66.09C5.67 66.46 5.72 66.82 5.85 67.17C5.96 67.41 6.16 67.61 6.4 67.73C6.79 67.91 7.2 68.02 7.63 68.04C8.14 68.11 8.76 68.11 9.76 68.11L24.47 68.11C25.03 68.17 25.6 68.06 26.1 67.78C26.25 67.66 26.5 67.31 26.5 66.2L26.5 57.2L32.16 57.2L32.16 65.78C32.1 66.43 32.27 67.08 32.66 67.6C32.92 67.83 33.47 68.11 34.92 68.11L45.74 68.11C45.74 67.86 45.74 67.61 45.74 67.37C45.68 65.21 46.37 63.1 47.7 61.4C49.04 59.69 50.92 58.51 53.03 58.05C53.03 52.45 56.65 49.11 62.65 49.11C69.19 49.11 76.12 54.69 76.13 59.89ZM50.35 68.16L60.55 68.16C60.55 67.92 60.55 67.66 60.55 67.41C60.61 66.38 60.38 65.35 59.87 64.45C59.36 63.55 58.61 62.81 57.69 62.33C56.99 62 56.22 61.84 55.44 61.85C54.73 61.84 54.02 61.97 53.36 62.26C52.7 62.54 52.11 62.95 51.63 63.48C51.14 64 50.77 64.63 50.55 65.3C50.32 65.98 50.24 66.7 50.31 67.41C50.31 67.66 50.32 67.91 50.35 68.16ZM63.26 61.55C64.52 63.24 65.17 65.31 65.09 67.41C65.09 67.65 65.09 67.9 65.09 68.16L71.03 68.16L71.03 60.09C71.03 57.44 65.51 53.64 62.65 53.64C59.79 53.64 58.15 55.29 58.15 58.16C60.19 58.67 62 59.87 63.26 61.55Z" />
            <path id="Layer" class="shp2" d="M16.09 76.34C15.38 76.34 14.69 76.58 14.14 77.03C13.59 77.48 13.21 78.11 13.07 78.8C12.93 79.5 13.03 80.22 13.37 80.85C13.7 81.48 14.24 81.97 14.9 82.24C15.55 82.52 16.28 82.55 16.96 82.35C17.65 82.14 18.23 81.71 18.63 81.12C19.02 80.53 19.2 79.82 19.13 79.11C19.06 78.4 18.75 77.74 18.25 77.24C17.97 76.95 17.63 76.73 17.26 76.57C16.89 76.42 16.49 76.34 16.09 76.34Z" />
            <path id="Layer" fill-rule="evenodd" class="shp2" d="M185.64 66.95C185.65 67.01 185.65 67.06 185.64 67.12C185.64 67.59 185.59 68.07 185.49 68.53L185.49 68.61L181.49 73.22L123.49 73.22C123.38 74.43 123 75.6 122.39 76.64C121.78 77.69 120.94 78.59 119.94 79.28C117.95 80.62 114.95 81.28 111.02 81.28L109.5 81.28L109.5 75.92L110.71 75.92C111.82 75.94 112.92 75.86 114.02 75.7C114.75 75.59 115.47 75.37 116.14 75.05C116.6 74.84 117.01 74.52 117.32 74.11C117.5 73.85 117.64 73.56 117.72 73.25L115.72 73.25C114.64 73.26 113.56 73.12 112.52 72.85C111.57 72.61 110.68 72.15 109.92 71.53C109.17 70.89 108.59 70.09 108.21 69.18C107.79 68.09 107.59 66.92 107.61 65.75C107.61 64.67 107.8 63.61 108.15 62.59C108.5 61.57 109.04 60.62 109.73 59.79C110.43 58.95 111.31 58.26 112.3 57.79C113.39 57.28 114.58 57.02 115.78 57.04C117.06 57 118.33 57.27 119.49 57.81C120.49 58.3 121.33 59.06 121.94 59.99C122.59 60.99 123.03 62.1 123.26 63.26C123.53 64.61 123.66 65.98 123.65 67.36L123.65 68.15L178.26 68.15C178.75 68.15 179.22 68.05 179.67 67.86C179.9 67.79 180.21 67.57 180.21 66.86C180.21 66.83 180.21 66.78 180.21 66.78C180.19 66.66 180.15 66.55 180.11 66.44C179.97 65.95 179.67 65.52 179.26 65.22C178.79 64.91 178.26 64.72 177.7 64.67C176.9 64.57 176.09 64.53 175.29 64.54L137.79 64.54L137.69 64.43C137.56 63.2 137.51 61.96 137.56 60.72C137.58 59.56 137.79 58.42 138.19 57.33C138.66 56.01 139.62 54.94 140.88 54.33L142.18 53.76L149.43 50.56L154.43 48.34L154.43 54.22L143.08 58.91L176.17 58.91C177.69 58.9 179.2 59.12 180.65 59.56C181.79 59.91 182.82 60.53 183.65 61.39C183.91 61.68 184.15 61.99 184.36 62.32L184.47 62.52C184.6 62.75 184.72 62.98 184.83 63.22C185.04 63.65 185.21 64.09 185.34 64.55C185.54 65.33 185.64 66.14 185.64 66.95ZM117.44 63.21C117.27 62.87 117 62.59 116.66 62.42C116.33 62.24 115.95 62.16 115.57 62.21C115.23 62.18 114.88 62.24 114.57 62.38C114.25 62.53 113.98 62.75 113.78 63.03C113.36 63.7 113.16 64.49 113.19 65.28C113.14 65.69 113.17 66.1 113.29 66.5C113.41 66.89 113.61 67.26 113.87 67.57C114.41 67.98 115.08 68.19 115.76 68.16L117.99 68.16L117.99 66.16C118.03 65.15 117.84 64.14 117.44 63.21Z" />
            <path id="Layer" class="shp2" d="M102.63 61.56L99.11 55.84L98.84 56.01C98.03 56.5 97.27 57.01 96.53 57.46C95.79 57.91 95.04 58.46 94.27 58.95L94 59.13L97.23 63.95L98.41 65.69C98.71 66.13 98.92 66.47 99.07 66.69C99.18 66.86 99.26 67.05 99.33 67.24C99.36 67.37 99.38 67.5 99.38 67.63C99.38 67.74 99.38 67.87 99.09 67.96C98.68 68.08 98.24 68.14 97.81 68.12L89.92 68.12L89.92 73.2L99.58 73.2C100.46 73.22 101.33 73.08 102.16 72.79C102.84 72.56 103.46 72.18 103.98 71.68C104.45 71.21 104.81 70.64 105.03 70.02C105.27 69.38 105.39 68.7 105.38 68.02C105.35 67.05 105.11 66.1 104.68 65.23C104.07 63.97 103.38 62.74 102.63 61.56Z" />
            <path id="Layer" class="shp2" d="M81.47 70.76C81.47 71.56 81.43 72.36 81.34 73.16C81.29 73.7 81.11 74.23 80.83 74.69C80.53 75.11 80.11 75.41 79.62 75.56C78.84 75.78 78.04 75.89 77.23 75.89L76.92 75.89L76.92 81.24L77.24 81.24C78.88 81.25 80.51 81.05 82.09 80.64C83.28 80.33 84.35 79.69 85.18 78.79C85.97 77.84 86.5 76.71 86.74 75.5C87.05 73.93 87.19 72.33 87.17 70.73L87.17 58.93L81.51 58.93L81.47 70.76Z" />
        </g>
    </g>
</svg>