<svg xmlns="http://www.w3.org/2000/svg" width="138" height="129" fill="none" viewBox="0 0 138 129">
    <g clip-path="url(#clip0)">
        <path fill="#00161E" d="M118.164 89.138l-6.1 7.03.114.171 20.008 11.397 4.674-7.881-18.696-10.717z"/>
        <path fill="#00161E" d="M118.163 110.174l18.696 10.717-4.674-13.155-20.007-11.397 5.985 13.835z"/>
        <path fill="#00161E" fill-opacity=".2" d="M97.87 46.497c.913-22.682-14.022-31.244-33.345-19.166S28.842 67.647 27.93 90.328c-.912 22.682 14.023 31.244 33.346 19.166 9.69-6.067 18.64-16.217 25.252-27.671C93.14 70.483 97.415 57.78 97.87 46.497zm-12.312 6.86c-.513 7.429-3.477 15.878-7.866 23.476-4.446 7.655-10.317 14.46-16.587 18.655-12.483 8.336-21.831 2.949-20.862-11.964.969-14.913 11.913-33.795 24.453-42.13C77.236 33 86.528 38.387 85.558 53.357z"/>
        <path fill="#F8FCFF" d="M95.762 87.04c8.322-14.403 13.453-30.62 13.453-45.25 0-15.31-5.644-25.856-14.593-30.393-8.265-4.196-19.437-3.232-31.693 3.8-25.593 14.686-46.285 50.409-46.285 79.78 0 15.311 5.587 25.858 14.593 30.394 8.265 4.196 19.437 3.232 31.692-3.799 12.826-7.372 24.454-20.017 32.833-34.533zm-34.486 22.454c-19.323 12.134-34.257 3.516-33.345-19.166.912-22.681 17.271-50.92 36.595-62.997 19.323-12.135 34.257-3.516 33.345 19.165-.456 11.285-4.73 23.986-11.286 35.327-6.67 11.454-15.618 21.604-25.308 27.671z"/>
        <path fill="#00161E" d="M16.588 94.978c0-29.372 20.748-65.096 46.285-79.782 12.255-7.031 23.37-7.938 31.693-3.799L79.176 3.63C71.308-.341 60.82.283 49.25 6.407c-.57.34-1.197.624-1.767.964-3.363 1.928-6.67 4.253-9.862 6.861C16.76 31.47 1.141 61.693 1.141 87.21c0 15.31 5.643 25.857 14.592 30.393l15.447 7.825c-8.949-4.593-14.592-15.139-14.592-30.45z"/>
        <path fill="#F8FCFF" d="M64.696 41.337c-12.54 8.335-23.484 27.16-24.453 42.13-.97 14.97 8.379 20.3 20.862 11.965 6.27-4.197 12.142-11 16.588-18.656 4.389-7.598 7.353-16.047 7.866-23.475.969-14.913-8.322-20.3-20.863-11.964zm10.09 19.165c-.228 3.913-1.824 8.279-4.105 12.305-2.337 4.026-5.415 7.598-8.664 9.753-6.555 4.366-11.457 1.53-10.944-6.294.513-7.825 6.213-17.692 12.768-22.058 6.556-4.31 11.458-1.53 10.945 6.294z"/>
        <path fill="#F14A4A" d="M63.842 54.265c-6.555 4.366-12.255 14.232-12.768 22.057-.513 7.825 4.39 10.66 10.944 6.294 3.306-2.211 6.384-5.783 8.664-9.753 2.28-3.969 3.876-8.392 4.105-12.304.512-7.882-4.39-10.66-10.945-6.294z"/>
        <path fill="#00161E" d="M60.478 94.524c-5.643 3.8-10.773 4.707-14.307 2.665-3.534-2.04-5.244-6.86-4.788-13.665.97-14.63 11.685-33.115 23.94-41.223 3.706-2.495 7.183-3.743 10.147-3.743 1.539 0 2.964.34 4.16 1.02 3.535 2.042 5.245 6.862 4.789 13.666-.456 6.748-2.964 14.516-7.182 22.001l1.995 1.134c4.332-7.768 6.954-15.877 7.467-22.965.513-7.654-1.596-13.268-5.928-15.763-4.332-2.495-10.26-1.531-16.701 2.778C51.3 48.935 40.129 68.215 39.103 83.41c-.513 7.656 1.596 13.27 5.928 15.764 1.596.907 3.363 1.361 5.301 1.361 3.42 0 7.296-1.36 11.4-4.14 5.986-3.969 11.743-10.376 16.36-18.088l-1.995-1.134c-4.39 7.428-9.918 13.552-15.618 17.351z"/>
        <path fill="#00161E" d="M60.706 108.53c-8.95 5.613-17.157 6.861-23.085 3.459-5.929-3.403-8.95-11.057-8.55-21.604.854-22.341 17.043-50.183 36.024-62.09 5.643-3.516 11.001-5.33 15.618-5.33 2.737 0 5.245.623 7.468 1.87 5.928 3.403 8.949 11.058 8.55 21.605-.4 10.433-4.161 22.454-10.602 33.852l1.995 1.134c6.612-11.738 10.488-24.043 10.887-34.873.456-11.397-2.964-19.79-9.69-23.645-6.67-3.856-15.733-2.609-25.423 3.515C44.347 38.615 27.702 67.306 26.79 90.271c-.456 11.398 2.964 19.79 9.69 23.646 2.566 1.474 5.416 2.211 8.55 2.211 5.074 0 10.831-1.928 16.873-5.67 9.291-5.841 18.127-15.424 25.08-27.105L84.99 82.22c-6.727 11.397-15.334 20.696-24.283 26.31z"/>
        <path fill="#00161E" d="M17.727 94.978c0-28.976 20.52-64.302 45.715-78.818 7.068-4.082 13.966-6.124 20.122-6.124 3.819 0 7.353.794 10.488 2.382l-9.12-4.593c-6.897-.34-14.65 1.814-22.573 6.407-25.878 14.857-46.912 51.09-46.912 80.746 0 10.263 2.565 18.882 7.296 24.836l8.95 4.536c-9.007-4.536-13.966-14.97-13.966-29.372zM62.36 120.608c-11.457 6.578-22.344 7.938-30.61 3.742.57.284.799.964.514 1.531-.228.397-.627.624-1.026.624-.171 0-.342-.057-.513-.113C34.202 128.15 38.078 129 42.239 129c6.555 0 13.794-2.155 21.261-6.464 12.313-7.088 23.884-19.109 32.662-34.022l-1.995-1.134c-8.607 14.629-19.837 26.367-31.807 33.228zM95.591 11.908c-.285.567-.969.793-1.482.51 9.007 4.536 13.966 14.97 13.966 29.372 0 13.666-4.503 29.089-12.769 43.662l1.995 1.134c8.437-14.913 13.054-30.79 13.054-44.796 0-15.083-5.529-26.537-15.22-31.413.513.283.741.963.456 1.53z"/>
        <path fill="#00161E" d="M22.744 119.871l-6.499-3.289C7.24 112.046 2.28 101.613 2.28 87.21c0-24.552 15.162-54.832 36.025-72.013 3.192-2.609 6.441-4.877 9.69-6.748.57-.34 1.14-.624 1.767-.964C60.592 1.758 70.796.737 78.605 4.707l6.327 3.175c3.648.17 7.068 1.02 10.146 2.552l-15.39-7.769C71.594-1.417 61.276-.68 50.389 4.65v1.814c0 .624-.513 1.135-1.14 1.135-.627 0-1.14-.51-1.14-1.135v-.68l-1.197.68c-2.793 1.588-5.53 3.46-8.265 5.557v1.645c0 .113 0 .17.057.283.17.624-.114 1.248-.741 1.418-.114.057-.228.057-.342.057-.456 0-.912-.284-1.083-.794-.057-.284-.114-.51-.171-.794C26.277 22.285 17.1 34.079 10.545 47.12 3.762 60.559 0 74.792 0 87.21c0 15.083 5.53 26.537 15.22 31.414l15.447 7.825c-3.021-1.588-5.7-3.799-7.924-6.578z"/>
        <path fill="#00161E" d="M32.206 125.881c.285-.567.057-1.247-.513-1.531l-8.949-4.536c2.223 2.778 4.845 4.99 7.923 6.521.171.057.342.113.513.113.456.057.855-.17 1.026-.567zM94.052 12.418c.057 0 .057 0 0 0 .057 0 .057 0 0 0 .57.283 1.254.056 1.539-.51.285-.568.057-1.248-.513-1.532C92 8.846 88.58 7.995 84.932 7.825l9.12 4.593zM114.572 99.004l16.701 9.469-.114-.397c-.114-.34-.057-.68.114-.964l.57-.964-18.012-10.206-.399.454 1.14 2.608zM87.554 82.39c-.17.34-.399.623-.57.964l7.183 4.082c.17-.34.398-.623.57-.964.17-.34.342-.68.57-.964l-7.183-4.082c-.228.283-.399.623-.57.964zM111.094 96.793l-.057-.17c-.171-.398-.114-.851.171-1.191l.513-.624-14.42-8.222c-.172.34-.343.68-.57 1.02-.172.34-.4.624-.57.965l15.104 8.562-.171-.34zM78.718 77.343c-.17.34-.399.624-.57.964l6.898 3.913c.17-.34.399-.624.57-.964.17-.34.342-.68.57-.964l-6.898-3.913c-.227.34-.398.68-.57.964z"/>
        <path fill="#00161E" fill-rule="evenodd" d="M54.437 82.957c1.653.964 4.16.453 6.897-1.361 2.766-1.797 5.476-4.761 7.687-8.453l-6.718-3.795c-.513-.284-.684-.964-.4-1.53.343-.511 1.027-.681 1.54-.454l6.726 3.799c-.228.34-.4.68-.57 1.02-.153.305-.306.563-.5.858l.056.032c.069-.12.142-.236.216-.351.1-.156.2-.312.285-.482.228-.34.399-.68.57-1.02l1.995 1.133c-.228.34-.399.68-.57 1.021-.085.17-.185.326-.285.482-.1.156-.2.312-.285.482l-.078-.044c-2.38 3.856-5.313 7.04-8.358 9.06-2.223 1.53-4.39 2.268-6.27 2.268-1.083 0-2.11-.284-3.021-.794-2.451-1.36-3.648-4.48-3.364-8.732.514-8.109 6.499-18.372 13.282-22.908 3.534-2.382 6.84-2.892 9.291-1.475 2.451 1.418 3.648 4.537 3.363 8.79-.228 3.685-1.539 7.824-3.705 11.794l-1.995-1.135c1.995-3.685 3.192-7.484 3.42-10.773.228-3.289-.57-5.67-2.223-6.634-.513-.284-1.197-.454-1.881-.454-1.425 0-3.192.624-5.016 1.871-6.327 4.14-11.8 13.666-12.312 21.15-.228 3.29.57 5.67 2.223 6.635zm16.93-9.101c.099-.156.199-.312.284-.482.171-.34.342-.68.57-.964l5.073 2.892-.151.245c-.14.225-.295.472-.419.719-.085.17-.185.326-.285.482-.1.156-.2.312-.285.482l-5.073-2.892c.086-.17.185-.326.285-.482z" clip-rule="evenodd"/>
        <path fill="#00161E" d="M79.23 76.38l-1.994-1.135c-.171.34-.342.68-.57.964-.171.34-.4.68-.57.964l1.995 1.134c.17-.34.399-.624.57-.964.228-.283.399-.624.57-.964zM88.123 81.426l-1.995-1.135c-.17.34-.342.68-.57.965-.17.34-.399.68-.57.963l1.995 1.135c.171-.34.4-.624.57-.965.171-.34.342-.68.57-.963zM97.301 86.642l-1.995-1.134c-.171.34-.342.68-.57.964-.171.34-.399.624-.57.964l1.995 1.134c.171-.34.4-.623.57-.964.171-.34.4-.68.57-.964zM133.439 107.85l4.389-7.372c.171-.283.228-.567.114-.85-.057-.284-.285-.567-.513-.68L118.733 88.23c-.456-.283-1.083-.17-1.425.227l-5.529 6.408 1.995 1.134 4.617-5.387 16.872 9.696-3.534 5.897.969.567c.57.284.741 1.021.399 1.531-.228.34-.57.567-.969.567-.171 0-.399-.056-.57-.17l-.342-.227 3.534 9.923-15.675-9.015-4.503-10.377-3.306-1.871 5.871 13.495c.114.227.285.397.456.51l18.696 10.717c.171.114.399.17.57.17.285 0 .513-.113.741-.283.342-.284.513-.794.342-1.248l-4.503-12.644z"/>
        <path fill="#00161E" d="M113.433 96.396l.342-.397-1.995-1.134-.513.624c-.285.34-.342.793-.171 1.19l.057.17.171.34 3.306 1.872-1.197-2.665zM131.103 108.076l.114.397.342.227c.171.113.399.17.57.17.399 0 .798-.227.969-.567.285-.567.114-1.247-.399-1.531l-.969-.567-.57.964c-.114.227-.171.624-.057.907zM48.11 5.727v.68c0 .624.512 1.134 1.14 1.134.626 0 1.14-.51 1.14-1.134V4.593c-.57.283-1.14.567-1.654.85-.228.114-.456.227-.627.284zM37.565 15.423c.114 0 .228 0 .342-.056.627-.17.912-.851.74-1.418-.056-.114-.056-.17-.056-.284v-1.644c-.57.454-1.197.907-1.767 1.418-.171.113-.342.283-.514.453 0 .284.057.51.171.794.172.454.628.737 1.084.737z"/>
    </g>
    <defs>
        <clipPath id="clip0">
            <path fill="#fff" d="M0 0H138V129H0z"/>
        </clipPath>
    </defs>
</svg>
