<svg xmlns="http://www.w3.org/2000/svg" width="112" height="126" fill="none" viewBox="0 0 112 126">
    <path fill="#FFB72B" d="M70.248 20.556l-2.367-4.853-12.024 39.303-30.2 20.842 22.721 10.087-6.532 38.162L67.88 91.074l26.13 2.76-6.627-30.548 22.722-36.449-30.107 14.18-9.751-20.46z"/>
    <path fill="#00161E" d="M80 41.016l30.106-14.18-23.763-13.798-16.095 7.518 9.751 20.46zM67.88 15.702L44.118 1.903 32.094 41.207l23.763 13.799 12.024-39.304z"/>
    <path fill="#00161E" d="M55.857 55.006L32.094 41.207 1.893 62.048 24.14 74.896l1.515.951 30.201-20.84z"/>
    <path fill="#00161E" d="M25.657 75.848l-1.515-.952-6.154 35.402 23.858 13.799 6.533-38.162-22.722-10.087zM41.089 125.81c.095 0 .095 0 .19.095-.096 0-.19-.095-.285-.095h.095zM41.846 126c.19 0 .284 0 .473-.095-.19.095-.379.095-.473.095z"/>
    <path fill="#00161E" d="M110.107 28.74c-.284 0-.663-.095-.947-.285l-3.124-1.808-25.184 11.8-8.047-17.035-1.799.857c-.284.095-.568.19-.757.19-.757 0-1.42-.476-1.704-1.142l9.751 20.556c.474.952 1.61 1.333 2.556.857l24.332-11.42-19.409 30.929c-.284.38-.378.952-.284 1.427l6.06 27.98-23.48-2.475c-.662-.095-1.23.19-1.704.666l-21.396 27.218 5.302-30.834c.189-.857-.285-1.713-1.137-2.094l-19.597-8.66 27.36-18.938.096-.095c-.38.285-.758.38-1.137.38-.284 0-.662-.095-.946-.285l-2.557-1.523-26.792 18.558 1.04.57c.948.572 1.232 1.714.664 2.57-.38.571-.947.952-1.61.952h-.095v.095l20.734 9.231-5.87 33.974 2.367 1.333c.947.571 1.231 1.713.663 2.569l-.284.286.095-.095 25.467-32.262 25.089 2.665c.568.095 1.23-.19 1.61-.666.378-.476.567-1.047.473-1.713l-6.438-29.787 22.248-35.497c-.284.57-.946.951-1.609.951z"/>
    <path fill="#00161E" d="M69.587 16.654c-.569.951-1.705 1.237-2.557.666l-1.325-.761L54.723 52.15l2.083 1.237c.757.476 1.136 1.428.852 2.189l10.603-34.64.19.38c-.095-.19-.19-.476-.19-.761 0-.762.474-1.523 1.23-1.809l1.61-.76-1.514-3.141c.284.57.284 1.237 0 1.808z"/>
    <path fill="#00161E" d="M24.426 73.089c.284 0 .473.095.663.285L5.396 61.86 32.19 43.397l-1.041-.571c-.947-.571-1.23-1.713-.663-2.57.568-.951 1.704-1.237 2.556-.666l1.326.762L45.254 4.759l20.45 11.896.474-1.427c.189-.762.852-1.237 1.704-1.333.378 0 .852.096 1.136.286l-.095-.095L45.065.286c-.473-.285-1.136-.38-1.61-.095-.567.19-.946.667-1.136 1.238L30.485 39.97.852 60.43C.284 60.813 0 61.384 0 62.05c0 .667.379 1.238.947 1.618l21.112 12.277.19-1.333c.189-1.047 1.136-1.713 2.177-1.522zM25.562 73.659l-.378-.286c.094 0 .284.19.378.285zM26.036 75.276l-.474 2.475h.095c.663 0 1.326-.38 1.61-.952.568-.952.189-2.094-.663-2.57l-1.041-.665v.095c.378.38.568.951.473 1.617z"/>
    <path fill="#00161E" d="M66.083 15.132l-.474 1.427 1.326.761c.947.571 2.083.19 2.556-.666.284-.57.284-1.237.095-1.808-.095-.19-.19-.285-.284-.476 0 0 0-.095-.095-.095-.095-.095-.19-.19-.379-.285-.378-.19-.757-.286-1.136-.286-.662.19-1.325.666-1.61 1.428zM39.953 123.716l.473-2.665-20.26-11.8 5.396-31.405-.663-.286s-.094 0-.094-.095h-.095l-2.65-1.523-5.87 34.07c-.095.761.189 1.618.946 1.998L40.9 125.809h.094c-.757-.475-1.136-1.237-1.041-2.093z"/>
    <path fill="#00161E" d="M42.792 122.384l-2.367-1.333-.473 2.665c-.095.856.284 1.618.947 1.998.094.096.189.096.284.096h.094c.19 0 .284.095.474.095s.284 0 .473-.095h.095c.094 0 .19-.096.284-.096.094 0 .094-.095.19-.095.094-.095.188-.095.188-.19l.095-.095.284-.286c.663-.951.284-2.093-.568-2.664zM24.9 77.56l.663.286v-.095c-.19-.095-.473-.095-.663-.19zM24.805 77.56c-.568-.285-.947-.856-1.041-1.522-.095-.666.284-1.333.852-1.713l.947-.666c-.095-.096-.19-.19-.38-.286-.189-.095-.473-.19-.662-.285-1.041-.19-1.988.475-2.177 1.522l-.19 1.333 2.651 1.522v.095z"/>
    <path fill="#00161E" d="M25.563 73.659l-.947.57c-.568.381-.852 1.047-.852 1.714.094.666.473 1.237 1.041 1.522.284.096.474.19.758.19l.473-2.474c.095-.57-.095-1.142-.474-1.522zM111.812 27.788c.094-.19.094-.285.189-.476-.095.19-.189.286-.189.476-.095 0 0 0 0 0zM72.804 21.508l13.444-6.377 19.787 11.515 3.313-1.522c.758-.38 1.61-.19 2.178.38l-.379-.38-23.858-13.8c-.568-.285-1.23-.38-1.704-.095L71.1 18.081l1.704 3.427z"/>
    <path fill="#00161E" d="M109.349 25.124l-3.314 1.523 3.124 1.808c.284.19.663.285.947.285.663 0 1.231-.285 1.61-.951.094-.19.189-.286.189-.476v-.095c0-.19.095-.381 0-.572 0-.19-.095-.38-.095-.475v-.095c-.094-.19-.189-.286-.284-.476l-.094-.096c-.474-.57-1.326-.76-2.083-.38zM68.356 20.556c0 .285.094.476.189.761v.095c.284.666.947 1.142 1.704 1.142.284 0 .568-.095.757-.19l1.704-.857-1.609-3.426-1.61.762c-.662.285-1.135.951-1.135 1.713zM54.722 52.151L34.367 40.255l-.473 1.428c-.095.38-.38.761-.758 1.047l-.947.666L52.356 55.1l1.894-1.332.473-1.618zM57.468 55.958c.094-.095.094-.286.19-.38-.096.19-.096.285-.285.475.095 0 .095-.095.095-.095z"/>
    <path fill="#00161E" d="M57.467 56.053c.095-.19.19-.286.284-.476.284-.857-.095-1.808-.852-2.189l-2.083-1.237-.473 1.618-1.894 1.332 2.556 1.523c.284.19.663.285.947.285.379 0 .852-.19 1.136-.38l.284-.286c0-.095 0-.095.095-.19zM33.893 41.778l.474-1.428-1.326-.761c-.947-.571-2.083-.19-2.556.666-.568.952-.19 2.094.663 2.57l1.041.57.947-.666c.378-.19.663-.57.757-.951z"/>
</svg>
