<svg xmlns="http://www.w3.org/2000/svg" width="162" height="100" fill="none" viewBox="0 0 162 100">
    <g clip-path="url(#clip0)">
        <path fill="#00161E" d="M55.42 42.758l25.612 14.927 25.549-14.927-25.55-14.927L55.42 42.758z"/>
        <path fill="#00161E" fill-opacity=".2" d="M9.395 42.758v14.484l9.267 5.377 13.59 7.97 4.508 2.656 9.017 5.25L59.366 86.4 80.03 98.42V83.934L9.395 42.758z"/>
        <path fill="#ECF6FD" d="M80.03 1.834L11.96 42.758l70.637 43.2 36.195-10.563 6.951-11.068 6.826-4.301 4.007-3.606 14.09 1.075V43.011L80.03 1.834z"/>
        <path fill="#08BCCB" stroke="#00161E" stroke-width="3" d="M106.641 42.725l.03.018c.01.026.024.07.035.138l-.005.029-.003.01-25.581 14.91h-.022c-.053 0-.076-.005-.083-.007-.005-.001-.013-.003-.027-.01L55.51 42.968c-.034-.03-.058-.062-.074-.09-.018-.033-.019-.051-.019-.056 0-.033.004-.064.01-.089l.002-.01L80.92 27.83c.057-.023.107-.023.163 0l25.558 14.895z"/>
        <path fill="#00161E" d="M161.249 71.79l-15.718-9.171-.939-.57.939.57 6.888-4.048h.063c.063 0 .063-.064.125-.127.063 0 .063-.063.126-.063l.125-.127.125-.126c0-.063.063-.063.063-.127 0-.063.062-.063.062-.126s.063-.127.063-.127c0-.063.063-.126.063-.126v-.127-14.737c0-.127 0-.253-.063-.38v-.126c0-.064-.063-.19-.125-.253 0 0 0-.064-.063-.064-.063-.126-.125-.19-.25-.316-.063-.063-.188-.19-.314-.253l-6.888-4.048 15.718-9.171c.751-.443 1.002-1.392.564-2.15-.439-.76-1.378-1.013-2.129-.57L142.4 35.484l-19.6-11.449 16.281-9.487c.752-.443 1.002-1.392.564-2.15-.439-.76-1.378-1.013-2.129-.57l-17.847 10.436-14.841-8.665 15.718-9.171c.751-.443 1.001-1.392.563-2.151-.438-.759-1.378-1.012-2.129-.57l-17.283 10.058L81.783.19c-.5-.253-1.064-.253-1.565 0L60.304 11.828 43.084 1.771c-.752-.443-1.691-.19-2.13.57-.438.758-.187 1.707.564 2.15l15.718 9.171.94-.569-.94.57L39.89 23.718c-.063 0-.063-.063-.125-.063L21.73 13.093c-.752-.443-1.69-.19-2.13.57-.438.758-.187 1.707.564 2.15l16.657 9.677-17.22 10.057L2.38 25.49c-.752-.443-1.754-.19-2.193.57-.438.759-.188 1.707.564 2.15l15.718 9.171 2.38 1.392-2.38-1.392L9.58 41.43H9.52c-.125.064-.188.127-.313.253-.063.064-.125.19-.188.253L8.955 42c-.062.063-.062.19-.125.253v.126c0 .127-.063.253-.063.38V57.622c0 .063 0 .126.063.126 0 .064.063.127.063.127 0 .063.062.063.062.126 0 .064.063.064.063.127s.063.063.125.126l.125.127c.063.063.063.063.126.063l.125.127h.062l6.889 4.048L.815 71.79c-.752.443-1.002 1.391-.564 2.15.313.507.814.823 1.378.823.25 0 .563-.063.751-.19l17.283-10.057 15.03 8.729-16.407 9.55c-.752.443-1.002 1.392-.564 2.151.313.506.814.76 1.378.76.25 0 .563-.064.751-.19l17.972-10.5 19.475 11.322-15.717 9.171c-.752.443-1.002 1.392-.564 2.15.313.507.814.823 1.378.823.25 0 .563-.063.751-.19L60.43 88.235 80.344 99.81h.063c.062.064.187.064.25.127h.125c.125 0 .25.063.376.063.125 0 .25 0 .376-.063h.125c.063 0 .188-.063.25-.127h.063l19.914-11.575 17.283 10.057c.25.127.501.19.751.19.564 0 1.065-.253 1.378-.822.438-.76.188-1.708-.564-2.15l-15.717-9.172 18.535-10.816 17.534 10.246c.251.127.501.19.752.19.563 0 1.064-.253 1.377-.759.439-.759.188-1.707-.563-2.15l-15.969-9.298 15.906-9.298 17.283 10.057c.251.126.501.19.752.19.563 0 1.064-.254 1.377-.823.251-.695 0-1.644-.751-2.087zM21.166 37.571c0 .19-.062.443-.188.633.126-.253.188-.443.188-.633zm58.3 58.128L11.961 56.357V45.54l67.505 39.342v10.816zm2.38 4.048c.438-.253.751-.759.751-1.328 0 .569-.313 1.075-.751 1.328zM81.032 82.1L13.527 42.758l6.888-3.985 40.703-23.72c-.25.127-.5.19-.751.19-.25 0-.564-.063-.752-.19l-1.377-.822 1.315.76c.25.126.5.19.751.19.25 0 .501-.064.752-.19.25-.127.438-.317.563-.57.126-.19.188-.38.188-.632 0 .19-.062.443-.188.632-.125.253-.313.443-.563.57L80.969 3.416l19.914 11.638 40.703 23.719h.063l6.888 3.985L81.032 82.1z"/>
    </g>
    <defs>
        <clipPath id="clip0">
            <path fill="#fff" d="M0 0H162V100H0z"/>
        </clipPath>
    </defs>
</svg>
