<svg xmlns="http://www.w3.org/2000/svg" width="72" height="72" fill="none" viewBox="0 0 72 72">
    <rect width="19.921" height="54.4" x="48.474" y="10.008" fill="#7FD7DD" stroke="#7FD7DD" stroke-width="1.6" rx="9.961" transform="rotate(45 48.474 10.008)"/>
    <path fill="#006387" d="M18.846 38.524c-.1 0-.15-.05-.15-.15v-.165c0-.21-.025-.38-.075-.51-.05-.13-.145-.285-.285-.465l-.78-.96c-.16-.19-.305-.37-.435-.54-.12-.18-.225-.355-.315-.525-.08-.17-.145-.345-.195-.525-.04-.18-.06-.38-.06-.6 0-.38.07-.735.21-1.065.15-.34.36-.63.63-.87.27-.25.595-.445.975-.585.38-.15.805-.225 1.275-.225.44 0 .84.065 1.2.195.36.12.67.295.93.525.27.23.49.505.66.825.17.32.28.675.33 1.065.02.09-.02.145-.12.165l-1.62.24c-.09.02-.145-.02-.165-.12-.14-.72-.53-1.08-1.17-1.08-.32 0-.58.095-.78.285-.19.18-.285.43-.285.75 0 .21.055.41.165.6.11.19.3.45.57.78l.855 1.05c.17.2.29.395.36.585.08.19.12.43.12.72v.45c0 .1-.05.15-.15.15h-1.695zm1.875 2.61c0 .1-.05.15-.15.15H18.8c-.1 0-.15-.05-.15-.15V39.44c0-.1.05-.15.15-.15h1.77c.1 0 .15.05.15.15v1.695zM33.862 34.714c.51 0 .97.06 1.38.18.41.11.76.275 1.05.495.29.22.51.49.66.81.16.32.24.69.24 1.11 0 .46-.11.88-.33 1.26-.22.37-.495.675-.825.915.08-.01.16-.015.24-.015h1.77c.2 0 .35.065.45.195.1.12.15.355.15.705 0 .34-.05.58-.15.72-.09.13-.24.195-.45.195h-1.86c-.42 0-.84-.02-1.26-.06-.41-.04-.76-.14-1.05-.3-.18.09-.38.16-.6.21-.22.05-.44.085-.66.105-.22.02-.435.035-.645.045h-6.045c-.63 0-1.08-.15-1.35-.45-.27-.31-.405-.79-.405-1.44v-3.39c0-.1.05-.15.15-.15h1.83c.1 0 .15.05.15.15v2.67c0 .19.025.34.075.45.05.1.12.18.21.24.09.05.2.08.33.09.14.01.3.015.48.015h4.29c-.33-.23-.605-.53-.825-.9-.22-.38-.33-.8-.33-1.26 0-.42.075-.79.225-1.11.16-.32.385-.59.675-.81.29-.22.64-.385 1.05-.495.41-.12.87-.18 1.38-.18zm0 1.485c-.31 0-.59.105-.84.315-.25.2-.375.52-.375.96 0 .45.12.815.36 1.095.24.27.525.485.855.645.33-.16.615-.375.855-.645.24-.28.36-.645.36-1.095 0-.22-.035-.41-.105-.57-.07-.16-.16-.29-.27-.39-.11-.11-.24-.19-.39-.24-.14-.05-.29-.075-.45-.075zm-1.005-2.745c-.1 0-.15-.05-.15-.15v-1.47c0-.1.05-.15.15-.15h1.86c.1 0 .15.05.15.15v1.47c0 .1-.05.15-.15.15h-1.86z"/>
    <path fill="#006387" d="M38.042 41.284c-.2 0-.34-.055-.42-.165-.09-.12-.135-.345-.135-.675 0-.35.04-.6.12-.75.08-.15.225-.225.435-.225h1.935c.2 0 .35.075.45.225.1.14.15.375.15.705 0 .37-.05.61-.15.72-.09.11-.24.165-.45.165h-1.935z"/>
    <path fill="#006387" d="M39.976 41.284c-.2 0-.34-.055-.42-.165-.09-.12-.135-.345-.135-.675 0-.35.04-.6.12-.75.08-.15.225-.225.435-.225h1.935c.2 0 .35.075.45.225.1.14.15.375.15.705 0 .37-.05.61-.15.72-.09.11-.24.165-.45.165h-1.935z"/>
    <path fill="#006387" d="M41.91 41.284c-.2 0-.34-.055-.42-.165-.09-.12-.136-.345-.136-.675 0-.35.04-.6.12-.75.08-.15.225-.225.435-.225h1.935c.2 0 .35.075.45.225.1.14.15.375.15.705 0 .37-.05.61-.15.72-.09.11-.24.165-.45.165H41.91z"/>
    <path fill="#006387" d="M44.593 44.36c-.1 0-.15-.05-.15-.15v-1.47c0-.1.05-.15.15-.15h1.5c.1 0 .15.05.15.15v1.47c0 .1-.05.15-.15.15h-1.5zm2.31 0c-.1 0-.15-.05-.15-.15v-1.47c0-.1.05-.15.15-.15h1.515c.1 0 .15.05.15.15v1.47c0 .1-.05.15-.15.15h-1.515zm-1.365-9.24c0-.1.05-.15.15-.15h1.815c.1 0 .15.05.15.15v3.54c.02.25.125.45.315.6.2.14.475.21.825.21h.345c.2 0 .35.07.45.21.1.14.15.37.15.69 0 .61-.2.914-.6.914-.38 0-.71-.045-.99-.135-.28-.09-.515-.295-.705-.615-.16.32-.4.525-.72.615-.31.09-.74.135-1.29.135h-1.545c-.2 0-.35-.06-.45-.18-.1-.13-.15-.365-.15-.705 0-.34.05-.58.15-.72.09-.14.24-.21.45-.21h.93c.32 0 .52-.09.6-.27.08-.19.12-.51.12-.96v-3.12z"/>
    <path fill="#006387" d="M52.626 34.85c.52.02.975.074 1.365.164.4.09.735.25 1.005.48.27.22.47.52.6.9.14.38.21.86.21 1.44v.885c0 .49-.05.9-.15 1.23-.09.33-.23.595-.42.795-.18.19-.415.33-.705.42-.28.08-.61.12-.99.12h-4.41c-.2 0-.35-.07-.45-.21-.1-.14-.15-.39-.15-.75 0-.34.05-.565.15-.675.09-.12.24-.18.45-.18h3.36c.24 0 .435-.015.585-.045.15-.03.265-.08.345-.15.08-.08.13-.185.15-.315.03-.13.045-.295.045-.495v-.69c0-.4-.11-.69-.33-.87-.21-.18-.55-.27-1.02-.27h-2.25c-.1 0-.15-.05-.15-.15v-1.23c0-.07.04-.145.12-.225l.21-.24 3.18-3.765c.06-.07.125-.085.195-.045l1.245 1.05c.08.06.1.13.06.21l-2.25 2.61z"/>
</svg>
