<svg xmlns="http://www.w3.org/2000/svg" width="49" height="48" fill="none" viewBox="0 0 49 48">
    <rect width="47.727" height="48" x=".387" fill="#00ADBB" rx="8"/>
    <path fill="#fff" fill-rule="evenodd" d="M24.25 13.2c-5.93 0-10.738 4.835-10.738 10.8 0 5.965 4.808 10.8 10.738 10.8 5.931 0 10.739-4.835 10.739-10.8 0-5.965-4.808-10.8-10.739-10.8zm-3.643 7.535c.61-1.748 2.387-2.798 4.203-2.485 1.816.314 3.142 1.898 3.14 3.75 0 1.199-.716 2.158-1.846 2.916-.628.42-1.247.698-1.682.843-.416.14-.867-.087-1.006-.506-.139-.419.087-.872.503-1.012l.196-.074c.058-.024.125-.052.199-.085.31-.14.622-.306.907-.497.734-.492 1.137-1.034 1.137-1.586.002-1.073-.766-1.99-1.817-2.172-1.052-.181-2.08.427-2.434 1.439-.145.417-.6.636-1.014.489-.415-.147-.632-.604-.486-1.02zM25.056 29c0-.442-.356-.8-.796-.8l-.11.006c-.392.05-.695.386-.695.794 0 .442.356.8.795.8l.11-.006c.392-.05.696-.386.696-.794z" clip-rule="evenodd"/>
</svg>
