<svg xmlns="http://www.w3.org/2000/svg" width="20" height="21" fill="none" viewBox="0 0 20 21">
    <path fill="#fff" fill-rule="evenodd" d="M10 4.304c1.416-1.546 4.206-2.275 8.333-2.275.369 0 .667.299.667.667v12.5c0 .368-.299.667-.667.667-4.38 0-6.945.753-7.718 2.099-.038.091-.096.168-.165.23-.128.12-.29.174-.45.172-.16.002-.322-.053-.45-.172-.07-.062-.127-.139-.165-.23-.773-1.346-3.338-2.1-7.719-2.1-.368 0-.666-.298-.666-.666v-12.5c0-.368.298-.667.666-.667 4.128 0 6.917.729 8.334 2.275zm-7.667-.935v11.166h.019c3.138.057 5.428.516 6.863 1.425l.118.077V5.625l-.067-.104C8.368 4.2 6.073 3.45 2.333 3.37zm15.333 0v11.166h-.019c-3.138.057-5.428.515-6.863 1.425l-.118.077V5.625l.067-.104C11.63 4.2 13.926 3.45 17.666 3.37z" clip-rule="evenodd"/>
    <path fill="#fff" fill-rule="evenodd" d="M15.547 7.03l.31.004c.367.012.655.32.643.688-.012.368-.32.657-.688.644-.602-.02-1.163.038-1.684.172-.511.132-.925.312-1.244.537-.301.211-.717.139-.929-.162-.211-.302-.139-.717.162-.93.46-.322 1.02-.566 1.678-.736.555-.143 1.14-.215 1.752-.218zM15.547 10.363l.31.005c.367.012.655.32.643.688-.012.368-.32.657-.688.644-.602-.02-1.163.038-1.684.173-.511.131-.925.311-1.244.536-.301.211-.717.139-.929-.162-.211-.302-.139-.717.162-.93.46-.322 1.02-.566 1.678-.736.555-.143 1.14-.215 1.752-.218zM4.453 7.03l-.31.004c-.367.012-.655.32-.643.688.012.368.32.657.688.644.602-.02 1.163.038 1.684.172.511.132.925.312 1.244.537.301.211.717.139.929-.162.211-.302.139-.717-.162-.93-.46-.322-1.02-.566-1.678-.736-.555-.143-1.14-.215-1.752-.218zM4.453 10.363l-.31.005c-.367.012-.655.32-.643.688.012.368.32.657.688.644.602-.02 1.163.038 1.684.173.511.131.925.311 1.244.536.301.211.717.139.929-.162.211-.302.139-.717-.162-.93-.46-.322-1.02-.566-1.678-.736-.555-.143-1.14-.215-1.752-.218z" clip-rule="evenodd"/>
</svg>
