<svg width="75" height="75" viewBox="0 0 75 75" fill="none" xmlns="http://www.w3.org/2000/svg">
<g filter="url(#filter0_dd_327:2827)">
<rect x="7" y="4" width="61" height="61" rx="16" fill="#FBFBFB"/>
</g>
<path d="M20.8291 36.548C21.0371 36.548 21.1851 36.504 21.2731 36.416C21.3691 36.32 21.4171 36.152 21.4171 35.912V33.068C21.4171 32.988 21.4571 32.948 21.5371 32.948H23.0011C23.0811 32.948 23.1211 32.988 23.1211 33.068V36.488C23.1211 37.008 23.0131 37.392 22.7971 37.64C22.5811 37.88 22.2131 38 21.6931 38H15.4651C14.9611 38 14.6011 37.88 14.3851 37.64C14.1691 37.392 14.0611 37.008 14.0611 36.488V33.836C14.0611 33.756 14.1011 33.716 14.1811 33.716H15.6451C15.7251 33.716 15.7651 33.756 15.7651 33.836V35.912C15.7651 36.152 15.8091 36.32 15.8971 36.416C15.9931 36.504 16.1411 36.548 16.3411 36.548H20.8291ZM17.0491 32.444C16.9691 32.444 16.9291 32.404 16.9291 32.324V31.148C16.9291 31.068 16.9691 31.028 17.0491 31.028H18.2491C18.3291 31.028 18.3691 31.068 18.3691 31.148V32.324C18.3691 32.404 18.3291 32.444 18.2491 32.444H17.0491ZM18.8971 32.444C18.8171 32.444 18.7771 32.404 18.7771 32.324V31.148C18.7771 31.068 18.8171 31.028 18.8971 31.028H20.1091C20.1891 31.028 20.2291 31.068 20.2291 31.148V32.324C20.2291 32.404 20.1891 32.444 20.1091 32.444H18.8971ZM26.6185 37.88C26.6185 37.96 26.5785 38 26.4985 38H25.0465C24.9665 38 24.9265 37.96 24.9265 37.88V29.96C24.9265 29.88 24.9665 29.84 25.0465 29.84H26.4985C26.5785 29.84 26.6185 29.88 26.6185 29.96V37.88ZM27.9594 40.46C27.8794 40.46 27.8394 40.42 27.8394 40.34V39.128C27.8394 39.048 27.8794 39.008 27.9594 39.008H28.2234C28.5514 39.008 28.7834 38.924 28.9194 38.756C29.0634 38.588 29.1354 38.332 29.1354 37.988V33.068C29.1354 32.988 29.1754 32.948 29.2554 32.948H30.7194C30.7994 32.948 30.8394 32.988 30.8394 33.068V38.048C30.8394 38.872 30.6474 39.48 30.2634 39.872C29.8794 40.264 29.2954 40.46 28.5114 40.46H27.9594ZM37.3505 35.948C37.3505 36.34 37.3105 36.668 37.2305 36.932C37.1585 37.196 37.0465 37.408 36.8945 37.568C36.7505 37.72 36.5625 37.832 36.3305 37.904C36.1065 37.968 35.8425 38 35.5385 38H32.6345C32.5545 38 32.5145 37.96 32.5145 37.88V36.668C32.5145 36.588 32.5545 36.548 32.6345 36.548H34.6985C34.8985 36.548 35.0585 36.536 35.1785 36.512C35.2985 36.48 35.3865 36.432 35.4425 36.368C35.5065 36.304 35.5465 36.22 35.5625 36.116C35.5865 36.012 35.5985 35.884 35.5985 35.732V35.084C35.5985 34.772 35.5065 34.548 35.3225 34.412C35.1465 34.268 34.8785 34.196 34.5185 34.196H33.1385C33.0585 34.196 33.0185 34.156 33.0185 34.076V32.864C33.0185 32.784 33.0585 32.744 33.1385 32.744H35.2265C35.9065 32.744 36.4305 32.92 36.7985 33.272C37.1665 33.616 37.3505 34.16 37.3505 34.904V35.948ZM39.1516 29.96C39.1516 29.88 39.1916 29.84 39.2716 29.84H40.7236C40.8036 29.84 40.8436 29.88 40.8436 29.96V35.912C40.8436 36.152 40.8876 36.32 40.9756 36.416C41.0716 36.504 41.2196 36.548 41.4196 36.548H41.7436C41.9036 36.548 42.0236 36.608 42.1036 36.728C42.1836 36.84 42.2236 37.032 42.2236 37.304C42.2236 37.592 42.1836 37.78 42.1036 37.868C42.0316 37.956 41.9116 38 41.7436 38H40.5556C40.0516 38 39.6916 37.88 39.4756 37.64C39.2596 37.392 39.1516 37.008 39.1516 36.488V29.96ZM43.356 40.448C43.276 40.448 43.236 40.408 43.236 40.328V39.152C43.236 39.072 43.276 39.032 43.356 39.032H44.844C44.924 39.032 44.964 39.072 44.964 39.152V40.328C44.964 40.408 44.924 40.448 44.844 40.448H43.356ZM44.796 37.4C44.66 37.648 44.472 37.812 44.232 37.892C43.992 37.964 43.656 38 43.224 38H42.264C42.104 38 41.984 37.976 41.904 37.928C41.824 37.872 41.784 37.756 41.784 37.58C41.784 37.476 41.792 37.364 41.808 37.244C41.824 37.124 41.852 37.012 41.892 36.908C41.932 36.804 41.984 36.72 42.048 36.656C42.112 36.584 42.192 36.548 42.288 36.548H42.684C42.932 36.548 43.088 36.48 43.152 36.344C43.224 36.2 43.26 35.948 43.26 35.588V33.068C43.26 33.004 43.316 32.968 43.428 32.96C43.548 32.952 43.652 32.948 43.74 32.948H44.844C44.924 32.948 44.964 32.988 44.964 33.068V35.9C44.98 36.1 45.064 36.26 45.216 36.38C45.376 36.492 45.596 36.548 45.876 36.548H46.152C46.312 36.548 46.432 36.604 46.512 36.716C46.592 36.828 46.632 37.012 46.632 37.268C46.632 37.756 46.472 38 46.152 38C45.848 38 45.584 37.964 45.36 37.892C45.136 37.82 44.948 37.656 44.796 37.4ZM50.319 38.084C49.895 38.084 49.503 38.032 49.143 37.928C48.791 37.816 48.495 37.624 48.255 37.352C48.167 37.496 48.051 37.612 47.907 37.7C47.763 37.788 47.611 37.856 47.451 37.904C47.299 37.944 47.147 37.972 46.995 37.988C46.843 37.996 46.707 38 46.587 38C46.427 38 46.307 37.948 46.227 37.844C46.147 37.74 46.107 37.556 46.107 37.292C46.107 37.02 46.143 36.828 46.215 36.716C46.287 36.604 46.411 36.548 46.587 36.548H46.935C47.119 36.548 47.283 36.472 47.427 36.32C47.579 36.168 47.663 35.884 47.679 35.468V35.228C47.679 34.428 47.907 33.816 48.363 33.392C48.819 32.96 49.471 32.744 50.319 32.744C51.127 32.744 51.771 32.972 52.251 33.428C52.731 33.876 52.971 34.556 52.971 35.468C52.971 35.524 52.967 35.58 52.959 35.636C52.959 35.684 52.959 35.732 52.959 35.78C52.975 36.044 53.051 36.24 53.187 36.368C53.323 36.488 53.495 36.548 53.703 36.548H54.051C54.211 36.548 54.331 36.604 54.411 36.716C54.491 36.828 54.531 37.012 54.531 37.268C54.531 37.756 54.371 38 54.051 38C53.907 38 53.759 37.996 53.607 37.988C53.455 37.972 53.307 37.94 53.163 37.892C53.019 37.844 52.883 37.776 52.755 37.688C52.627 37.592 52.515 37.464 52.419 37.304C52.179 37.592 51.875 37.796 51.507 37.916C51.147 38.028 50.751 38.084 50.319 38.084ZM50.319 34.196C49.663 34.196 49.335 34.6 49.335 35.408C49.335 35.864 49.415 36.184 49.575 36.368C49.743 36.544 49.991 36.632 50.319 36.632C50.655 36.632 50.903 36.544 51.063 36.368C51.223 36.184 51.303 35.864 51.303 35.408C51.303 34.6 50.975 34.196 50.319 34.196ZM54.5201 38C54.3601 38 54.2401 37.972 54.1601 37.916C54.0801 37.86 54.0401 37.748 54.0401 37.58C54.0401 37.484 54.0521 37.376 54.0761 37.256C54.0921 37.136 54.1201 37.024 54.1601 36.92C54.1921 36.816 54.2401 36.728 54.3041 36.656C54.3601 36.584 54.4321 36.548 54.5201 36.548H54.9401C55.1401 36.548 55.2841 36.504 55.3721 36.416C55.4681 36.32 55.5161 36.152 55.5161 35.912V29.96C55.5161 29.88 55.5561 29.84 55.6361 29.84H57.1001C57.1801 29.84 57.2201 29.88 57.2201 29.96V36.488C57.2201 37.008 57.1121 37.392 56.8961 37.64C56.6801 37.88 56.3201 38 55.8161 38H54.5201ZM60.834 37.88C60.834 37.96 60.794 38 60.714 38H59.262C59.182 38 59.142 37.96 59.142 37.88V29.96C59.142 29.88 59.182 29.84 59.262 29.84H60.714C60.794 29.84 60.834 29.88 60.834 29.96V37.88Z" fill="black"/>
<defs>
<filter id="filter0_dd_327:2827" x="0" y="0" width="75" height="75" filterUnits="userSpaceOnUse" color-interpolation-filters="sRGB">
<feFlood flood-opacity="0" result="BackgroundImageFix"/>
<feColorMatrix in="SourceAlpha" type="matrix" values="0 0 0 0 0 0 0 0 0 0 0 0 0 0 0 0 0 0 127 0" result="hardAlpha"/>
<feMorphology radius="1" operator="erode" in="SourceAlpha" result="effect1_dropShadow_327:2827"/>
<feOffset dy="3"/>
<feGaussianBlur stdDeviation="4"/>
<feColorMatrix type="matrix" values="0 0 0 0 0.196078 0 0 0 0 0.196078 0 0 0 0 0.278431 0 0 0 0.05 0"/>
<feBlend mode="normal" in2="BackgroundImageFix" result="effect1_dropShadow_327:2827"/>
<feColorMatrix in="SourceAlpha" type="matrix" values="0 0 0 0 0 0 0 0 0 0 0 0 0 0 0 0 0 0 127 0" result="hardAlpha"/>
<feOffset/>
<feGaussianBlur stdDeviation="0.5"/>
<feColorMatrix type="matrix" values="0 0 0 0 0.0470588 0 0 0 0 0.101961 0 0 0 0 0.294118 0 0 0 0.24 0"/>
<feBlend mode="normal" in2="effect1_dropShadow_327:2827" result="effect2_dropShadow_327:2827"/>
<feBlend mode="normal" in="SourceGraphic" in2="effect2_dropShadow_327:2827" result="shape"/>
</filter>
</defs>
</svg>
