<svg width="89" height="75" viewBox="0 0 89 75" fill="none" xmlns="http://www.w3.org/2000/svg">
<path d="M54.1374 73.2672C54.1909 73.2841 54.2405 73.3117 54.283 73.3483C54.3255 73.3849 54.3601 73.4298 54.3848 73.4802C54.4094 73.5306 54.4235 73.5855 54.4262 73.6416C54.429 73.6976 54.4203 73.7536 54.4007 73.8062C54.372 73.89 54.318 73.9627 54.2461 74.0144C54.1743 74.0661 54.0881 74.0941 53.9995 74.0945C53.7953 74.1136 53.5896 74.1136 53.3853 74.0945L41.9412 72.6906C41.8769 72.6815 41.8114 72.6882 41.7502 72.71C41.6891 72.7319 41.6342 72.7682 41.5902 72.816L40.1111 74.3076C40.0341 74.3676 39.9392 74.4001 39.8416 74.4001C39.744 74.4001 39.6491 74.3676 39.5721 74.3076C39.0331 73.9566 38.4816 73.5806 37.9426 73.1795C36.581 72.2005 35.2753 71.1459 34.0318 70.0207C33.9522 69.9408 33.9075 69.8327 33.9075 69.7199C33.9075 69.6071 33.9522 69.4989 34.0318 69.4191C34.0924 69.3531 34.1722 69.3079 34.26 69.2899C34.3477 69.2719 34.4389 69.282 34.5206 69.3188C36.3063 70.1055 38.1849 70.6615 40.1111 70.9734C43.671 71.55 47.4815 71.7254 50.7531 72.3772C51.9014 72.591 53.0325 72.8884 54.1374 73.2672Z" fill="#424448"/>
<path d="M55.04 65.7709C55.154 65.8859 55.218 66.0414 55.218 66.2033C55.218 66.3653 55.154 66.5208 55.04 66.6358C54.9578 66.7175 54.8545 66.7749 54.7416 66.8014C54.6288 66.828 54.5108 66.8227 54.4007 66.7862C53.636 66.535 52.852 66.3463 52.0567 66.2221C50.8032 66.009 49.3868 65.8461 47.6696 65.6957C40.1488 65.0439 33.5179 65.1065 26.9873 62.8378C24.7314 62.0447 22.807 60.5175 21.5222 58.5008L21.3091 58.1623L18.1504 53.2362C18.0648 53.0975 18.0365 52.931 18.0716 52.7719C18.1067 52.6128 18.2024 52.4736 18.3384 52.3838C18.4127 52.3384 18.4953 52.3084 18.5815 52.2955C18.6676 52.2826 18.7554 52.287 18.8398 52.3086L20.5696 52.7724C25.2199 53.9131 30.2965 54.5398 35.3229 55.7682C43.6585 57.7988 49.3618 60.7821 53.3854 64.2041C53.9871 64.718 54.5637 65.2319 55.0901 65.7709H55.04Z" fill="#009FAE"/>
<path d="M63.3756 59.0654C63.4331 59.1591 63.4522 59.2714 63.4288 59.3789C63.4055 59.4864 63.3415 59.5806 63.2502 59.642C63.1779 59.6905 63.0928 59.7164 63.0058 59.7164C62.9187 59.7164 62.8337 59.6905 62.7614 59.642C60.774 58.1617 58.5544 57.0222 56.1932 56.2702C45.5387 52.6852 27.6391 50.968 13.7883 42.2438C12.3171 41.3541 10.9135 40.357 9.58917 39.2606C9.06099 38.7661 8.57854 38.2249 8.14768 37.6436C5.40803 34.0484 2.95616 30.2428 0.814883 26.2621C0.272765 25.2168 -0.00686333 24.0552 0.000127943 22.8777C0.0157386 22.7691 0.0726752 22.6706 0.159074 22.6029C0.245473 22.5352 0.35467 22.5034 0.463912 22.5142C0.555189 22.5131 0.643941 22.5442 0.714606 22.602C1.24106 23.0908 1.78006 23.5671 2.31905 24.0184C11.4443 31.5392 24.0668 34.2968 38.3688 40.5642C54.5386 47.6714 59.189 52.4596 63.3756 59.0654Z" fill="#424448"/>
<path d="M64.8171 49.6894C64.8402 49.7361 64.8537 49.7871 64.8568 49.8391C64.8598 49.8912 64.8524 49.9434 64.8348 49.9925C64.8173 50.0416 64.79 50.0867 64.7547 50.1251C64.7193 50.1635 64.6766 50.1943 64.6291 50.2158C64.5497 50.2537 64.46 50.2643 64.374 50.2462C64.2879 50.2281 64.2102 50.1822 64.1527 50.1156C61.6458 46.9819 58.2865 44.663 53.586 42.156C36.3508 32.9305 17.4234 30.8748 3.54748 16.3345C3.37199 16.1591 3.20904 15.971 3.03355 15.783C2.77615 15.5053 2.63949 15.1368 2.6536 14.7584C2.6677 14.38 2.8314 14.0227 3.10876 13.7649C3.20181 13.6784 3.30748 13.6066 3.42213 13.5518C4.1272 13.1874 4.90973 12.9982 5.70344 13.0003H5.82879H7.89702C9.05557 13.0331 10.2082 12.8239 11.2814 12.3861C11.3295 12.3669 11.3734 12.3382 11.4103 12.3018C11.4472 12.2654 11.4764 12.222 11.4963 12.1741C11.5161 12.1262 11.5262 12.0748 11.5259 12.0229C11.5256 11.9711 11.5149 11.9198 11.4945 11.8722V11.797L10.8677 10.907C10.6403 10.5941 10.4549 10.2528 10.3162 9.89171C10.2532 9.73794 10.2214 9.57318 10.2227 9.40701C10.2239 9.24084 10.2582 9.07658 10.3235 8.92378C10.3888 8.77098 10.4839 8.6327 10.6031 8.51697C10.7224 8.40124 10.8635 8.31037 11.0182 8.24966C11.2097 8.17177 11.4175 8.14245 11.623 8.16432C11.8286 8.18619 12.0256 8.25857 12.1964 8.37501H12.2716C25.8342 17.588 41.3647 24.1061 53.7489 35.1366C58.4382 39.1387 62.2127 44.1016 64.8171 49.6894Z" fill="#009FAE"/>
<path d="M82.2779 62.0487L67.9884 65.6587C67.6194 65.75 67.2294 65.6919 66.9031 65.4971C66.5768 65.3022 66.3407 64.9864 66.246 64.6184C66.1649 64.3358 66.1649 64.036 66.246 63.7535C67.0106 61.7479 67.9257 59.6546 68.8783 57.4861C72.6387 48.7118 68.7404 42.9584 63.6137 37.4306C51.4676 24.3694 33.0541 14.9308 17.9373 4.07576C17.6175 3.85721 17.3971 3.52102 17.3243 3.14057C17.2515 2.76012 17.3322 2.36632 17.5487 2.04514C17.7256 1.80168 17.9761 1.62152 18.2632 1.53122L21.7478 0.277749C22.4645 0.0287613 23.2283 -0.0543529 23.9817 0.0346677C24.7351 0.123688 25.4585 0.382523 26.0974 0.791672L46.4537 13.8278C46.6367 13.941 46.8419 14.0137 47.0554 14.0408L55.8297 15.0938C56.5215 15.1756 57.1886 15.4006 57.7886 15.7545C58.3885 16.1085 58.9082 16.5835 59.3143 17.1495L75.7849 39.2231C75.906 39.3862 76.0601 39.5218 76.2372 39.6212C76.4144 39.7206 76.6105 39.7814 76.8128 39.7997L85.913 40.5893H86.1261C86.3681 40.6279 86.5967 40.7259 86.7914 40.8747C86.9862 41.0235 87.1409 41.2183 87.2417 41.4417C88.2504 43.6591 88.8451 46.0423 88.9965 48.4737C89.0483 50.9994 88.5284 53.5042 87.4756 55.8007C86.4229 58.0972 84.8645 60.126 82.9172 61.7354C82.7349 61.8935 82.5146 62.0015 82.2779 62.0487Z" fill="#424448"/>
</svg>
