<svg width="75" height="75" viewBox="0 0 75 75" fill="none" xmlns="http://www.w3.org/2000/svg">
<g filter="url(#filter0_dd_327:2815)">
<rect x="7" y="4" width="61" height="61" rx="16" fill="#FBFBFB"/>
</g>
<path d="M59.395 33.4491H59.3757C59.0783 33.4494 58.7838 33.391 58.509 33.2774C58.2342 33.1638 57.9845 32.9971 57.7741 32.7869C57.5638 32.5768 57.3969 32.3272 57.2831 32.0525C57.1692 31.7778 57.1106 31.4833 57.1106 31.186C57.1103 30.8886 57.1687 30.5941 57.2823 30.3193C57.3959 30.0445 57.5626 29.7948 57.7728 29.5844C57.983 29.3741 58.2325 29.2072 58.5072 29.0934C58.7819 28.9795 59.0764 28.9209 59.3737 28.9209H59.395C59.9952 28.9209 60.5708 29.1593 60.9952 29.5838C61.4197 30.0082 61.6581 30.5838 61.6581 31.184C61.6584 31.4814 61.6 31.7759 61.4864 32.0507C61.3728 32.3255 61.2061 32.5752 60.9959 32.7856C60.7857 32.9959 60.5362 33.1628 60.2615 33.2767C59.9868 33.3905 59.6923 33.4491 59.395 33.4491Z" fill="#007EE5"/>
<path d="M45.8334 40.0652H45.8141C45.2139 40.0652 44.6382 39.8268 44.2138 39.4024C43.7894 38.978 43.551 38.4023 43.551 37.8021C43.5507 37.5048 43.6091 37.2104 43.7227 36.9357C43.8364 36.661 44.003 36.4114 44.2132 36.2012C44.4234 35.991 44.673 35.8243 44.9477 35.7107C45.2224 35.5971 45.5168 35.5387 45.8141 35.5389H45.8334C46.4338 35.5389 47.0096 35.7773 47.4343 36.2017C47.8591 36.6261 48.0979 37.2017 48.0985 37.8021C48.0987 38.0996 48.0403 38.3943 47.9265 38.6692C47.8128 38.9441 47.646 39.1939 47.4356 39.4043C47.2252 39.6147 46.9754 39.7815 46.7005 39.8953C46.4256 40.009 46.1309 40.0674 45.8334 40.0672V40.0652Z" fill="#00EBEB"/>
<path d="M55.0786 31.1339C55.0786 31.7372 54.8389 32.3158 54.4123 32.7423C53.9857 33.1689 53.4072 33.4086 52.8039 33.4086H45.8257C45.2224 33.4086 44.6438 33.1689 44.2172 32.7423C43.7906 32.3158 43.551 31.7372 43.551 31.1339C43.551 30.8352 43.6098 30.5396 43.7242 30.2637C43.8385 29.9878 44.0061 29.7372 44.2173 29.5261C44.4286 29.315 44.6794 29.1476 44.9553 29.0335C45.2313 28.9194 45.527 28.8608 45.8257 28.8611H52.8039C53.1025 28.8608 53.3983 28.9194 53.6742 29.0335C53.9502 29.1476 54.201 29.315 54.4122 29.5261C54.6235 29.7372 54.7911 29.9878 54.9054 30.2637C55.0197 30.5396 55.0786 30.8352 55.0786 31.1339Z" fill="#00EBEB"/>
<path d="M61.66 37.806C61.66 38.1046 61.6011 38.4003 61.4868 38.6762C61.3724 38.952 61.2049 39.2027 60.9936 39.4138C60.7824 39.6248 60.5316 39.7922 60.2556 39.9063C59.9796 40.0204 59.6839 40.079 59.3853 40.0787H52.4071C52.1084 40.079 51.8127 40.0204 51.5367 39.9063C51.2607 39.7922 51.01 39.6248 50.7987 39.4138C50.5875 39.2027 50.4199 38.952 50.3055 38.6762C50.1912 38.4003 50.1324 38.1046 50.1324 37.806C50.1324 37.2027 50.372 36.6241 50.7986 36.1975C51.2252 35.7709 51.8038 35.5312 52.4071 35.5312H59.3853C59.9886 35.5312 60.5672 35.7709 60.9937 36.1975C61.4203 36.6241 61.66 37.2027 61.66 37.806Z" fill="#007EE5"/>
<path d="M37.6456 29.202L33.8242 30.0322L33.8801 30.8026L37.7034 29.9879L37.6456 29.202Z" fill="#001C33"/>
<path d="M38.2195 32.6999V36.1514H37.4626C36.9849 36.1514 36.7441 35.8721 36.7441 35.3116V33.2392H35.159V35.5697C35.1716 35.6649 35.1543 35.7617 35.1095 35.8466C35.0646 35.9315 34.9944 36.0004 34.9086 36.0435C34.7187 36.1212 34.5147 36.1585 34.3096 36.1533C34.1894 36.1638 34.0684 36.1494 33.954 36.1109C33.8397 36.0725 33.7345 36.0109 33.6451 35.9299C33.4962 35.7603 33.4201 35.5388 33.4332 35.3135V33.2392H31.8654V35.5697C31.8692 35.6791 31.8522 35.7883 31.8153 35.8914C31.7846 35.9668 31.7288 36.0294 31.6574 36.0686C31.5686 36.1148 31.4704 36.1399 31.3704 36.1418C31.2529 36.1418 31.1046 36.1533 30.9216 36.1533H29.4693V35.3829C29.4693 34.4969 29.2536 33.8035 28.8222 33.3027C28.3907 32.8019 27.7487 32.5528 26.8961 32.5554C26.6279 32.5558 26.3612 32.5954 26.1044 32.6729C25.8409 32.7491 25.5893 32.8619 25.3571 33.008C25.1236 33.151 24.9082 33.3218 24.7157 33.5165C24.524 33.7171 24.3601 33.9425 24.2284 34.1868V28.84H22.6645V36.1456H17.6143C17.5051 36.1457 17.3964 36.1321 17.2907 36.1052C17.1829 36.0782 17.0815 36.0304 16.9921 35.9646C16.9041 35.8968 16.8334 35.809 16.786 35.7084C16.7284 35.5823 16.7013 35.4444 16.7071 35.3059V33.2334H15.1258V36.8679C15.1278 37.1253 15.1137 37.3827 15.0834 37.6383C15.0632 37.8303 14.9971 38.0146 14.8908 38.1757C14.7842 38.325 14.63 38.4337 14.4536 38.4839C14.1957 38.5586 13.9285 38.5962 13.66 38.5956V40.0825C14.1141 40.0833 14.5666 40.0303 15.0083 39.9246C15.355 39.8431 15.6756 39.6755 15.9405 39.4373C16.1986 39.1904 16.389 38.8813 16.4933 38.5397C16.6273 38.0906 16.6923 37.6236 16.6859 37.1549C16.8116 37.3095 16.9827 37.4207 17.1751 37.4727C17.2637 37.4958 17.3408 37.5132 17.412 37.5247H17.4448C17.4938 37.5331 17.5434 37.5376 17.5931 37.5382H30.9158C31.3675 37.5463 31.819 37.5114 32.2641 37.4342C32.6056 37.3714 32.9109 37.1823 33.1193 36.9045C33.2834 37.0917 33.4875 37.2398 33.7163 37.3379C34.047 37.4791 34.4049 37.5449 34.7641 37.5305C34.8951 37.5305 35.0299 37.5305 35.1725 37.5189C35.3185 37.5101 35.4631 37.4855 35.6039 37.4457C35.755 37.4024 35.899 37.3375 36.0315 37.2531C36.1797 37.1561 36.31 37.0342 36.4167 36.8929C36.557 37.1008 36.7506 37.2671 36.9772 37.3745C37.289 37.4907 37.6215 37.5412 37.9537 37.5228H39.8201V32.6787L38.2195 32.6999ZM27.888 36.1514H24.2978C24.4026 35.8628 24.5396 35.5869 24.7061 35.329C24.8706 35.081 25.0647 34.854 25.2839 34.6529C25.4857 34.4643 25.7166 34.3095 25.9677 34.1945C26.1973 34.0886 26.4468 34.0327 26.6996 34.0308C26.8937 34.0236 27.087 34.0591 27.2659 34.1348C27.4088 34.1976 27.5349 34.2933 27.6338 34.4141C27.727 34.5395 27.7927 34.6833 27.8264 34.8359C27.8681 35.0113 27.8888 35.191 27.888 35.3713V36.1514Z" fill="#001C33"/>
<defs>
<filter id="filter0_dd_327:2815" x="0" y="0" width="75" height="75" filterUnits="userSpaceOnUse" color-interpolation-filters="sRGB">
<feFlood flood-opacity="0" result="BackgroundImageFix"/>
<feColorMatrix in="SourceAlpha" type="matrix" values="0 0 0 0 0 0 0 0 0 0 0 0 0 0 0 0 0 0 127 0" result="hardAlpha"/>
<feMorphology radius="1" operator="erode" in="SourceAlpha" result="effect1_dropShadow_327:2815"/>
<feOffset dy="3"/>
<feGaussianBlur stdDeviation="4"/>
<feColorMatrix type="matrix" values="0 0 0 0 0.196078 0 0 0 0 0.196078 0 0 0 0 0.278431 0 0 0 0.05 0"/>
<feBlend mode="normal" in2="BackgroundImageFix" result="effect1_dropShadow_327:2815"/>
<feColorMatrix in="SourceAlpha" type="matrix" values="0 0 0 0 0 0 0 0 0 0 0 0 0 0 0 0 0 0 127 0" result="hardAlpha"/>
<feOffset/>
<feGaussianBlur stdDeviation="0.5"/>
<feColorMatrix type="matrix" values="0 0 0 0 0.0470588 0 0 0 0 0.101961 0 0 0 0 0.294118 0 0 0 0.24 0"/>
<feBlend mode="normal" in2="effect1_dropShadow_327:2815" result="effect2_dropShadow_327:2815"/>
<feBlend mode="normal" in="SourceGraphic" in2="effect2_dropShadow_327:2815" result="shape"/>
</filter>
</defs>
</svg>
